<svg xmlns="http://www.w3.org/2000/svg" width="400" height="375.991" viewBox="0 0 400 375.991">
    <path fill="#9e1f24" d="M649.538 3522.341c11.948-24.944 12.967-51.7.121-75.508-12.054-22.333-12.235-39.993-13.405-63.443-.876-17.913-6.163-35.147-7.514-52.872-1.738-22.333.022-45.64.045-67.961-31.8-1.771-63.951.954-95.557-1.8-34.189-2.974-67.848-9.087-101.909-12.286-34.483-3.242-71.715-2.775-105.443 4.924-17.287 3.962-38.871 9.594-44.543 28.116l-2.2 2.135c-4.524 13.4-16.811 29.178-18.82 43.763-4.585 33.38 3.338 68.583 4.432 101.856 1.02 31.375 8.27 62.145 6.881 93.263-.612 14.118-3.285 27.407 2.235 39.747 3.271 7.392 5.642 13 7.666 20.993 1.571 6.194 1.1 15.26 3.134 20.9 6.857 19.141 52.926 17.567 71.5 18.255 39.8 1.488 77.01-9.088 115.721-16.6 34.959-6.8 69.638-6.533 105.828-6.533 13.352 0 34.785 4.4 47.775 1.094 10.068-2.578 9.365-12.511 9.969-22.708.6-10.007-2.885-23.62-.189-33.519 2.371-8.682 10.511-13.944 14.273-21.816zm-64.419-22.154c-4.1 2.878-6.578 4.874-7.454 5.98-.431 3.77-1.435 10.132-3.058 19.087a95.16 95.16 0 0 1-9.214 26.754 41.132 41.132 0 0 1-13.873 15.275q-8.734 5.653-16.8 5.644a6.168 6.168 0 0 1-3.723-1.332 21.525 21.525 0 0 0-2.409-1.663 38.9 38.9 0 0 0-20.678-10.629c-7.733-1.317-11.842-1.99-12.272-1.99a8.049 8.049 0 0 1-7.424-6.455c-.416-2.775 2.151-5.815 7.763-5.815h28.086c4.962 0 9.04-3.449 12.264-13.631a134.969 134.969 0 0 0 6.163-31.393l-34.906.744c-1.5 5.538-8.119 8.57-19.855 8.677s-16.939-3.056-15.663-9.7l8.065-45.783-36.8.365q-5.822 64.113-39.067 88.2-33.283 24.085-51.355 27.734c-7.326 1.1-11.245-.108-11.8-3.665-.529-3.534 1.563-6.28 6.306-8.281 8.6-3.549 20.338-14.327 35.194-30.156s22.807-45.247 23.917-76.321h-21.97c-3.247 0-6.729 1.369-10.49 1.925a43.832 43.832 0 0 0-6.948 1.7l-6.789-17.327c1.291.223 4.841-1.423 10.664-.757 5.8.662 9.8-1.079 11.948-1.079h99.152l3.867-8.741c1.722-4.875 5.588-4.492 11.623-1.058s10.867 6.92 14.537 9.345c11.192 7.541 14.493 12.917 9.849 15.562-4.63 2.667-7.054 2.811-7.281 4.8l-4.818 26.706h32.92l4.524-9.3c1.73-3.757 5.521-3.036 11.472-.171a138.354 138.354 0 0 1 16.313 9.888c10.759 7.974 14.082 13.991 10.019 16.861zm6.615-96.819a159.454 159.454 0 0 0-14.069 10.132c-4.312 4.209-7.688 7.359-10.173 9.457a9.913 9.913 0 0 1-8.232 2.5c-3.444-.662-9.463-4.875-28.947-12.623s-28.993-21.034-44.1-39.864v46.181c0 6.868-7.167 11.066-18.88 12.621-11.736 1.54-18.88-.887-18.88-7.314v-36.536c-15.1 11.957-35.027 21.04-54.745 27.243-19.7 6.205-39.151 9.849-54.224 10.956-5.808.216-10.891-1.271-13.156-4.479s.091-5.82 8.043-7.82c8.836-1.76 23.849-7.381 45.607-17.121s37.285-14.768 47.224-38.071h-70.407c-2.8 0-6.465.1-10.988.521-4.516.461-7.212.608-8.073.608l-7.114-17.306c1.095.236 4.893-.287 11.464.495s11.91.147 16 .147h90.376v-19.267c-15.1.651-36.333 1.042-50.864 1.153-14.515.108-24.423.167-25.481.167-6.684 0-11.986-1.771-13.813-5.314s.31-5.647 7.409-6.311c18.284-1.107 45.486-4.978 82.077-11.622s60.372-14.827 71.564-24.589c.846.9 3.541 3.5 8.187 7.809 4.622 4.319 8.843 8.475 12.709 12.467 7.326 6.856 8.089 10.733 2.409 11.615-5.709.9-10.822 1.88-15.346 3-3.022.895-4.29 2.1-14.727 3.649-10.46 1.553-11.26 2.88-26.365 3.986v23.261h53.031l6.774-12.946c2.786-5.093 6.789-6.276 11.948-4.507 5.181 1.782 13.654 7.232 25.518 15.861 5.815 4.213 8.5 8.289 8.065 11.715-.416 3.439-4.191 5.413-11.282 5.413h-98.831c13.768 23.3 30.767 23.843 51.007 29.92 20.24 6.1 38.244 9.853 53.93 11.384 6.684.436 8.459 1.55 5.354 3.429z" transform="translate(-258.901 -3246.574)"/>
</svg>
