<svg xmlns="http://www.w3.org/2000/svg" id="_09-bookbank" width="100" height="100" viewBox="0 0 100 100">
    <defs>
        <style>
            .cls-1{fill:#323232}
        </style>
    </defs>
    <path id="패스_423" d="M60.417 89.167h-50A10.429 10.429 0 0 1 0 78.75V20.417A10.429 10.429 0 0 1 10.417 10h50a6.25 6.25 0 0 1 6.25 6.25v66.667a6.25 6.25 0 0 1-6.25 6.25zm-50-75a6.25 6.25 0 0 0-6.25 6.25V78.75a6.25 6.25 0 0 0 6.25 6.25h50a2.083 2.083 0 0 0 2.083-2.083V16.25a2.083 2.083 0 0 0-2.083-2.083z" class="cls-1" transform="translate(0 10.833)"/>
    <path id="사각형_502" d="M0 0H3.75V75H0z" class="cls-1" transform="translate(8.75 22.5)"/>
    <path id="패스_424" d="M24.417 28.5H20.25a6.25 6.25 0 1 1 0-12.5h4.167a6.25 6.25 0 0 1 6.25 6.25H26.5a2.083 2.083 0 0 0-2.083-2.083H20.25a2.083 2.083 0 1 0 0 4.167h4.167z" class="cls-1" transform="translate(15.167 17.333)"/>
    <path id="패스_425" d="M24.417 32.5H20.25A6.25 6.25 0 0 1 14 26.25h4.167a2.083 2.083 0 0 0 2.083 2.083h4.167a2.083 2.083 0 1 0 0-4.167H20.25V20h4.167a6.25 6.25 0 1 1 0 12.5z" class="cls-1" transform="translate(15.167 21.667)"/>
    <path id="사각형_503" d="M0 0H5V3.75H0z" class="cls-1" transform="translate(35 31.25)"/>
    <path id="사각형_504" d="M0 0H5V3.75H0z" class="cls-1" transform="translate(35 52.5)"/>
    <path id="패스_426" d="M40.25 58.167h-25A6.25 6.25 0 0 1 9 51.917V35.25A6.25 6.25 0 0 1 15.25 29h25a6.25 6.25 0 0 1 6.25 6.25v16.667a6.25 6.25 0 0 1-6.25 6.25zm-25-25a2.083 2.083 0 0 0-2.083 2.083v16.667A2.083 2.083 0 0 0 15.25 54h25a2.083 2.083 0 0 0 2.083-2.083V35.25a2.083 2.083 0 0 0-2.083-2.083z" class="cls-1" transform="translate(9.75 31.417)"/>
    <path id="사각형_505" d="M0 0H20V3.75H0z" class="cls-1" transform="translate(27.5 68.75)"/>
    <path id="사각형_506" d="M0 0H12.5V3.75H0z" class="cls-1" transform="translate(27.5 77.5)"/>
    <path id="사각형_507" d="M0 0H3.75V3.75H0z" class="cls-1" transform="translate(43.75 77.5)"/>
    <path id="패스_427" d="M82.917 45.833H60v-4.166h22.917A2.083 2.083 0 0 0 85 39.583V6.25a2.083 2.083 0 0 0-2.083-2.083H16.25a2.083 2.083 0 0 0-2.083 2.083v10.417H10V6.25A6.25 6.25 0 0 1 16.25 0h66.667a6.25 6.25 0 0 1 6.25 6.25v33.333a6.25 6.25 0 0 1-6.25 6.25z" class="cls-1" transform="translate(10.833)"/>
    <path id="패스_428" d="M70.25 33.167H55.667V29h12.856a6.287 6.287 0 0 1 3.81-3.81V11.977a6.288 6.288 0 0 1-3.81-3.81H21.977a6.288 6.288 0 0 1-3.81 3.81v.356H14V10.25a2.083 2.083 0 0 1 2.083-2.083 2.083 2.083 0 0 0 2.083-2.083A2.083 2.083 0 0 1 20.25 4h50a2.083 2.083 0 0 1 2.083 2.083 2.083 2.083 0 0 0 2.083 2.083A2.083 2.083 0 0 1 76.5 10.25v16.667A2.083 2.083 0 0 1 74.417 29a2.083 2.083 0 0 0-2.083 2.083 2.083 2.083 0 0 1-2.084 2.084z" class="cls-1" transform="translate(15.167 4.333)"/>
    <path id="패스_429" d="M48.583 31.417H34V27.25h14.583a2.083 2.083 0 0 0 2.083-2.083V21h4.167v4.167a6.25 6.25 0 0 1-6.25 6.25z" class="cls-1" transform="translate(36.833 22.75)"/>
    <path id="패스_430" d="M42.333 35.417H34V31.25h8.333a2.083 2.083 0 0 0 2.083-2.083V25h4.167v4.167a6.25 6.25 0 0 1-6.25 6.25z" class="cls-1" transform="translate(36.833 27.083)"/>
</svg>
