<svg xmlns="http://www.w3.org/2000/svg" id="_21-accounting" width="100" height="100" viewBox="0 0 100 100">
    <defs>
        <style>
            .cls-1{fill:#323232}
        </style>
    </defs>
    <path id="패스_413" d="M25 66.667H10.416A10.429 10.429 0 0 1 0 56.25V10.417A10.429 10.429 0 0 1 10.416 0h41.663a10.429 10.429 0 0 1 10.416 10.417v8.333h18.748v-4.167A2.083 2.083 0 0 1 84.8 13.11l14.581 14.584a2.083 2.083 0 0 1 0 2.946L84.8 45.223a2.083 2.083 0 0 1-3.556-1.473v-4.167H60.412v-4.166h22.914A2.083 2.083 0 0 1 85.41 37.5v1.221l9.553-9.554-9.553-9.555v1.221a2.083 2.083 0 0 1-2.083 2.083H60.412a2.083 2.083 0 0 1-2.083-2.083V10.417a6.25 6.25 0 0 0-6.249-6.25H10.416a6.25 6.25 0 0 0-6.249 6.25V56.25a6.25 6.25 0 0 0 6.249 6.25H25z" class="cls-1"/>
    <path id="패스_414" d="M14.416 25.5H6.083A2.083 2.083 0 0 1 4 23.417v-8.334A2.083 2.083 0 0 1 6.083 13h8.333a2.083 2.083 0 0 1 2.084 2.083v8.333a2.083 2.083 0 0 1-2.084 2.084zm-6.25-4.167h4.166v-4.166H8.166z" class="cls-1" transform="translate(4.333 14.083)"/>
    <path id="패스_415" d="M22.416 25.5h-8.333A2.083 2.083 0 0 1 12 23.417v-8.334A2.083 2.083 0 0 1 14.083 13h8.333a2.083 2.083 0 0 1 2.084 2.083v8.333a2.083 2.083 0 0 1-2.084 2.084zm-6.249-4.167h4.166v-4.166h-4.167z" class="cls-1" transform="translate(12.998 14.083)"/>
    <path id="패스_416" d="M30.416 25.5h-8.333A2.083 2.083 0 0 1 20 23.417v-8.334A2.083 2.083 0 0 1 22.083 13h8.333a2.083 2.083 0 0 1 2.084 2.083v8.333a2.083 2.083 0 0 1-2.084 2.084zm-6.249-4.167h4.166v-4.166h-4.167z" class="cls-1" transform="translate(21.663 14.083)"/>
    <path id="패스_417" d="M14.416 33.5H6.083A2.083 2.083 0 0 1 4 31.417v-8.334A2.083 2.083 0 0 1 6.083 21h8.333a2.083 2.083 0 0 1 2.084 2.083v8.333a2.083 2.083 0 0 1-2.084 2.084zm-6.25-4.167h4.166v-4.166H8.166z" class="cls-1" transform="translate(4.333 22.75)"/>
    <path id="패스_418" d="M22.416 33.5h-8.333A2.083 2.083 0 0 1 12 31.417v-8.334A2.083 2.083 0 0 1 14.083 21h8.333a2.083 2.083 0 0 1 2.084 2.083v8.333a2.083 2.083 0 0 1-2.084 2.084zm-6.249-4.167h4.166v-4.166h-4.167z" class="cls-1" transform="translate(12.998 22.75)"/>
    <path id="패스_419" d="M30.416 33.5h-8.333A2.083 2.083 0 0 1 20 31.417v-8.334A2.083 2.083 0 0 1 22.083 21h8.333a2.083 2.083 0 0 1 2.084 2.083v8.333a2.083 2.083 0 0 1-2.084 2.084zm-6.249-4.167h4.166v-4.166h-4.167z" class="cls-1" transform="translate(21.663 22.75)"/>
    <path id="사각형_494" d="M0 0H51.25V5H0z" class="cls-1" transform="translate(2.5 16.251)"/>
    <path id="사각형_495" d="M0 0H3.75V3.75H0z" class="cls-1" transform="translate(8.75 8.751)"/>
    <path id="사각형_496" d="M0 0H12.5V3.75H0z" class="cls-1" transform="translate(16.25 8.751)"/>
    <path id="사각형_497" d="M0 0H3.75V27.502H0z" class="cls-1" transform="translate(58.75 28.752)"/>
    <path id="패스_420" d="M44.416 41.5h-4.167a6.25 6.25 0 0 1 0-12.5h4.166a6.25 6.25 0 0 1 6.249 6.25H46.5a2.083 2.083 0 0 0-2.083-2.083h-4.168a2.083 2.083 0 0 0 0 4.167h4.166z" class="cls-1" transform="translate(36.827 31.417)"/>
    <path id="패스_421" d="M44.416 45.5h-4.167A6.25 6.25 0 0 1 34 39.25h4.166a2.083 2.083 0 0 0 2.083 2.083h4.166a2.083 2.083 0 0 0 0-4.167h-4.166V33h4.166a6.25 6.25 0 0 1 0 12.5z" class="cls-1" transform="translate(36.827 35.75)"/>
    <path id="사각형_498" d="M0 0H3.75V3.75H0z" class="cls-1" transform="translate(77.5 58.755)"/>
    <path id="사각형_499" d="M0 0H3.75V5H0z" class="cls-1" transform="translate(77.5 78.757)"/>
    <path id="패스_422" d="M25.748 74a2.083 2.083 0 0 1-1.472-.61L7.61 56.727a2.083 2.083 0 0 1 0-2.946l16.665-16.666a2.083 2.083 0 0 1 3.556 1.473v6.25h22.915A20.832 20.832 0 0 1 72.167 24a21.082 21.082 0 0 1 20.242 20.25 20.833 20.833 0 0 1-20.831 21.421H27.831v6.25a2.083 2.083 0 0 1-1.285 1.925 2.056 2.056 0 0 1-.8.158zm-13.72-18.75l11.637 11.642v-3.3a2.083 2.083 0 0 1 2.083-2.092h45.83a16.666 16.666 0 0 0 16.665-17.137 16.862 16.862 0 0 0-16.19-16.192 16.666 16.666 0 0 0-17.14 16.667v2.083A2.083 2.083 0 0 1 52.829 49H25.748a2.083 2.083 0 0 1-2.083-2.083v-3.3z" class="cls-1" transform="translate(7.582 25.996)"/>
    <path id="사각형_500" d="M0 0H31.25V5H0z" class="cls-1" transform="translate(31.25 78.757)"/>
    <path id="사각형_501" d="M0 0H13.75V3.75H0z" class="cls-1" transform="translate(40 62.505)"/>
</svg>
