<svg xmlns="http://www.w3.org/2000/svg" width="133.498" height="60" viewBox="0 0 133.498 60">
    <defs>
        <style>
            .cls-1,.cls-2{fill:#fff}.cls-2{fill-rule:evenodd}
        </style>
    </defs>
    <g id="그룹_334" transform="translate(-299.28 -3907.394)">
        <g id="그룹_212" transform="translate(299.28 3930.823)">
            <path id="패스_219" d="M303.995 3993.462c-.07.1-.187.285-.349.553s-.331.559-.506.876-.354.635-.54.953-.326.578-.419.781a7.7 7.7 0 0 1-.505.8.616.616 0 0 1-.471.3.8.8 0 0 1-.715-.343 1.172 1.172 0 0 1-.157-.839 4.935 4.935 0 0 1 .505-1.372q.436-.876.976-1.791t1.064-1.715q.523-.8.8-1.144.871-1.066 1.708-2.191t1.744-2.191a1.153 1.153 0 0 1 .906-.572 1.635 1.635 0 0 1 .82.229.843.843 0 0 1 .4.8.658.658 0 0 1-.139.457l-.314.343q-.349.343-.784.8t-.889 1.028a9.612 9.612 0 0 1-.837.953 4.2 4.2 0 0 0-.837 1.181 1.963 1.963 0 0 0 .1.5q.1.342.209.61a6.057 6.057 0 0 0 .261.571q.192.382.418.857t.488.971q.262.5.506.877a6.694 6.694 0 0 0 .907 1.2q.523.553 1.011 1.086a1.224 1.224 0 0 1 .157.248.65.65 0 0 1 .052.4q-.035.419-.261.533a.913.913 0 0 1-.4.114 1.532 1.532 0 0 1-.749-.228 4.97 4.97 0 0 1-.68-.457 8.515 8.515 0 0 1-1.22-1.41q-.558-.8-1.011-1.6-.279-.5-.628-1.1t-.621-1.068zm10.005-1.181q-.244.192-.872.629t-1.081.819q-.1.077-.332.267c-.151.127-.314.255-.488.381l-.523.381a2.64 2.64 0 0 0-.366.3 1.149 1.149 0 0 1-.7.267.91.91 0 0 1-.733-.286.764.764 0 0 1-.174-.667.916.916 0 0 1 .21-.476c.116-.139.244-.285.383-.438.093-.076.3-.234.628-.477s.668-.489 1.028-.743.692-.482.994-.686a4.6 4.6 0 0 0 .523-.381 9.089 9.089 0 0 0 1.848-1.925 12.486 12.486 0 0 0 1.325-2.686.784.784 0 0 1 .261-.457.928.928 0 0 1 .367-.191 1.109 1.109 0 0 1 1.011.267 1.174 1.174 0 0 1 .314 1.1 2.275 2.275 0 0 1-.227.59q-.157.286-.332.667a11.182 11.182 0 0 0-1.028 3.182 20.419 20.419 0 0 0-.3 3.448c0 .433.006.876.018 1.334a4.69 4.69 0 0 0 .191 1.257 3.813 3.813 0 0 0 .227.667 6.871 6.871 0 0 1 .261.705.429.429 0 0 1-.3.552.8.8 0 0 1-.854-.209 3.024 3.024 0 0 1-.924-1.219 4.926 4.926 0 0 1-.4-1.524 20.569 20.569 0 0 1-.1-2.153 18.986 18.986 0 0 1 .145-2.295zm5.788 4.155a19.221 19.221 0 0 1 .419-4.612 46.433 46.433 0 0 1 1.36-4.915 6.957 6.957 0 0 0 .192-.877q.087-.532.192-1.085t.227-1.029a1.594 1.594 0 0 1 .3-.667.622.622 0 0 1 .419-.134c.209-.012.336-.019.383-.019a.831.831 0 0 1 .68.419 1.894 1.894 0 0 1 .122 1.181 13.233 13.233 0 0 1-.61 2.515q-.437 1.258-.819 2.553-.209.8-.436 1.639a11.959 11.959 0 0 0-.331 1.715q-.1.8-.192 1.41t-.157 1.677a1.89 1.89 0 0 1-.157.572.736.736 0 0 1-.61.343.845.845 0 0 1-.75-.153.731.731 0 0 1-.231-.534z" class="cls-1" transform="translate(-299.992 -3982.772)"/>
            <path id="패스_220" d="M315.179 3999.359a1.26 1.26 0 0 1-.809-.34 3.348 3.348 0 0 1-1.013-1.339 5.247 5.247 0 0 1-.426-1.624 20.868 20.868 0 0 1-.106-2.183c0-.537.022-1.077.067-1.611l-.288.2c-.409.286-.765.556-1.058.8-.083.062-.188.146-.331.267s-.328.265-.506.395l-.523.381a2.33 2.33 0 0 0-.318.261l-.042.039a1.468 1.468 0 0 1-.9.333 1.222 1.222 0 0 1-.98-.4 1.093 1.093 0 0 1-.247-.937 1.213 1.213 0 0 1 .279-.625c.119-.143.25-.293.393-.449l.033-.031c.094-.078.3-.232.641-.487.327-.242.676-.494 1.035-.747s.7-.485 1-.69a4.444 4.444 0 0 0 .468-.334l.034-.031a8.833 8.833 0 0 0 1.783-1.854 12.18 12.18 0 0 0 1.281-2.6 1.092 1.092 0 0 1 .371-.617 1.238 1.238 0 0 1 .5-.254 1.719 1.719 0 0 1 .333-.034 1.4 1.4 0 0 1 .966.377 1.486 1.486 0 0 1 .417 1.393v.026a2.656 2.656 0 0 1-.259.674c-.1.183-.208.4-.321.646a10.93 10.93 0 0 0-1 3.1 20.18 20.18 0 0 0-.292 3.394c0 .443.006.889.018 1.325a4.37 4.37 0 0 0 .178 1.171l.006.023a3.508 3.508 0 0 0 .208.609 7.07 7.07 0 0 1 .274.739.754.754 0 0 1-.48.947.965.965 0 0 1-.386.087zm-1.472-8.531l-.1.78a18.765 18.765 0 0 0-.137 2.266 20.318 20.318 0 0 0 .1 2.119 4.624 4.624 0 0 0 .376 1.428 2.717 2.717 0 0 0 .824 1.091c.217.182.373.235.528.168.14-.06.131-.094.111-.167a6.389 6.389 0 0 0-.247-.661 4.216 4.216 0 0 1-.243-.712 5.048 5.048 0 0 1-.2-1.333c-.012-.442-.018-.893-.018-1.342a20.83 20.83 0 0 1 .3-3.5 11.562 11.562 0 0 1 1.058-3.273c.114-.249.229-.48.337-.676a1.987 1.987 0 0 0 .192-.495.862.862 0 0 0-.212-.8.792.792 0 0 0-.731-.187.619.619 0 0 0-.225.125.478.478 0 0 0-.147.275l-.013.042a12.9 12.9 0 0 1-1.362 2.757 9.46 9.46 0 0 1-1.9 1.981 4.5 4.5 0 0 1-.56.409q-.451.3-.988.682c-.355.25-.7.5-1.022.738s-.5.377-.6.452q-.194.213-.358.41a.582.582 0 0 0-.136.31.452.452 0 0 0 .1.414.6.6 0 0 0 .485.171.8.8 0 0 0 .479-.185 3.207 3.207 0 0 1 .392-.324l.523-.381c.167-.121.325-.244.471-.367s.269-.222.348-.28c.29-.246.661-.527 1.087-.824.41-.286.7-.494.858-.619zm-5.509 8.115a1.85 1.85 0 0 1-.911-.271 5.114 5.114 0 0 1-.725-.489 8.823 8.823 0 0 1-1.281-1.475c-.377-.54-.723-1.087-1.028-1.626q-.279-.5-.627-1.1c-.125-.218-.243-.421-.353-.608l-.063.1c-.158.26-.326.55-.5.864s-.354.634-.545.96c-.18.307-.316.56-.4.752l-.013.024a8.006 8.006 0 0 1-.528.835.919.919 0 0 1-.732.436 1.111 1.111 0 0 1-.987-.489 1.494 1.494 0 0 1-.207-1.063 5.147 5.147 0 0 1 .537-1.47c.294-.592.626-1.2.987-1.812s.72-1.19 1.071-1.727.628-.933.822-1.17c.578-.707 1.149-1.44 1.7-2.179.562-.754 1.15-1.495 1.749-2.2a1.456 1.456 0 0 1 1.162-.694 1.965 1.965 0 0 1 .98.271 1.154 1.154 0 0 1 .565 1.083.967.967 0 0 1-.225.677l-.314.343c-.24.236-.5.5-.789.8s-.576.635-.869 1.006a9.766 9.766 0 0 1-.859.978 3.984 3.984 0 0 0-.739 1.015 2.526 2.526 0 0 0 .085.34c.067.22.135.418.2.585a5.639 5.639 0 0 0 .249.544q.193.385.421.864c.148.311.31.634.482.959s.336.611.492.853a6.4 6.4 0 0 0 .869 1.152q.525.556 1.015 1.091a1.47 1.47 0 0 1 .207.319.975.975 0 0 1 .084.6.881.881 0 0 1-.437.776 1.215 1.215 0 0 1-.543.146zm-4.9-6.792l.261.43c.184.3.4.662.632 1.074s.442.777.629 1.107c.295.521.629 1.05.995 1.574a8.2 8.2 0 0 0 1.174 1.357 4.6 4.6 0 0 0 .621.414 1.215 1.215 0 0 0 .588.186.6.6 0 0 0 .255-.08c.025-.012.069-.095.084-.27a.372.372 0 0 0-.019-.226.847.847 0 0 0-.108-.176q-.484-.53-1.006-1.081a7.074 7.074 0 0 1-.95-1.258c-.159-.248-.334-.551-.513-.891s-.343-.665-.494-.983-.289-.6-.416-.852a6.165 6.165 0 0 1-.276-.606c-.069-.176-.142-.389-.214-.626a2.169 2.169 0 0 1-.119-.59v-.071l.03-.064a4.56 4.56 0 0 1 .9-1.273 9.369 9.369 0 0 0 .807-.917q.47-.594.916-1.062c.292-.306.559-.578.792-.807l.3-.331a.351.351 0 0 0 .054-.237c0-.343-.135-.46-.237-.518a1.305 1.305 0 0 0-.658-.187.867.867 0 0 0-.644.439l-.014.018c-.593.7-1.175 1.429-1.731 2.175s-1.134 1.488-1.718 2.2c-.176.217-.44.592-.781 1.115s-.7 1.1-1.056 1.7-.678 1.193-.965 1.77a4.653 4.653 0 0 0-.475 1.272.855.855 0 0 0 .106.614.464.464 0 0 0 .443.2c.039 0 .114-.045.21-.173a7.475 7.475 0 0 0 .477-.755c.1-.21.241-.478.428-.8s.368-.638.536-.944c.177-.323.349-.622.513-.89s.282-.456.358-.567zm16.511 4.6a1 1 0 0 1-.737-.268 1.051 1.051 0 0 1-.321-.762 19.608 19.608 0 0 1 .426-4.679 47.166 47.166 0 0 1 1.369-4.95 6.641 6.641 0 0 0 .18-.826q.087-.537.193-1.094c.072-.378.15-.731.231-1.05a1.887 1.887 0 0 1 .371-.805.893.893 0 0 1 .639-.238c.221-.013.355-.02.4-.02h.028a1.157 1.157 0 0 1 .932.576 2.169 2.169 0 0 1 .165 1.39 13.645 13.645 0 0 1-.625 2.58c-.286.823-.56 1.676-.815 2.539-.137.524-.282 1.072-.433 1.631a11.683 11.683 0 0 0-.323 1.668q-.105.807-.192 1.417c-.057.4-.109.952-.155 1.652a2.241 2.241 0 0 1-.185.686 1.033 1.033 0 0 1-.856.529 1.974 1.974 0 0 1-.291.025zm2.74-14.042c-.053 0-.169.007-.351.018a.536.536 0 0 0-.21.039 1.379 1.379 0 0 0-.209.517c-.078.305-.153.645-.222 1.009s-.133.725-.19 1.078a7.21 7.21 0 0 1-.2.919 46.484 46.484 0 0 0-1.353 4.888 18.987 18.987 0 0 0-.412 4.533.359.359 0 0 0 .408.39 1.326 1.326 0 0 0 .2-.016c.195-.03.331-.089.362-.157a1.566 1.566 0 0 0 .129-.473c.045-.7.1-1.273.158-1.686s.122-.874.191-1.406a12.382 12.382 0 0 1 .339-1.757q.226-.836.435-1.636c.261-.882.538-1.745.827-2.577a12.988 12.988 0 0 0 .6-2.453 1.566 1.566 0 0 0-.079-.97.5.5 0 0 0-.421-.258z" class="cls-1" transform="translate(-299.28 -3982.06)"/>
        </g>
        <g id="그룹_213" transform="translate(326.194 3926.885)">
            <path id="패스_221" d="M386.09 3985.107q.069-.279.522-.419 3.034-.766 5.928-1.324a31.432 31.432 0 0 1 5.962-.558h.837a6.832 6.832 0 0 1 1.185.1 2.951 2.951 0 0 1 1.046.384.92.92 0 0 1 .453.837.68.68 0 0 1-.035.209c-.024.07-.1.14-.244.21a33.226 33.226 0 0 0-4.986.157q-2.371.261-4.986.645-.7.1-1.464.3t-1.395.4a6.939 6.939 0 0 0-.942.418 1.959 1.959 0 0 1-.941.244.79.79 0 0 1-.715-.349 1.566 1.566 0 0 1-.226-.872zm1.046-7.6q-.071-1.08-.07-1.848a13.927 13.927 0 0 1 .139-1.812 5.3 5.3 0 0 1 .087-.628c.035-.162.075-.326.122-.488s.1-.332.157-.506l.227-.679a1.652 1.652 0 0 1 .349-.645 2.774 2.774 0 0 1 .279-.227.717.717 0 0 1 .383-.122 1.726 1.726 0 0 1 .488.035 1.9 1.9 0 0 1 .453.157.407.407 0 0 1 .244.279v.174a1.1 1.1 0 0 1-.07.436c-.047.1-.116.251-.209.436a11.927 11.927 0 0 0-.453 1.255 7.131 7.131 0 0 0-.244 1.168q-.071.576-.088 1.221t-.017 1.412c0 .186.005.36.017.523s.018.314.018.453v.349a.58.58 0 0 1-.384.557 1.111 1.111 0 0 1-.505.053.758.758 0 0 1-.611-.4 1.6 1.6 0 0 1-.226-.593c-.034-.212-.064-.398-.086-.561zm2.929 2.3a.627.627 0 0 1 .262-.349 3.467 3.467 0 0 1 .488-.313 5.285 5.285 0 0 1 .523-.244c.174-.07.307-.128.4-.175a5.415 5.415 0 0 0 .471-.994q.331-.819.611-1.691a8.45 8.45 0 0 0 .226-.907 4.266 4.266 0 0 0 .052-.7q0-.661-.383-.731a1 1 0 0 0-.558.017 3.4 3.4 0 0 0-.628.332c-.116.07-.227.139-.331.209a.961.961 0 0 1-.4.139.586.586 0 0 1-.627-.3 1.055 1.055 0 0 1-.174-.784.6.6 0 0 1 .174-.313 3.807 3.807 0 0 1 .314-.279 3.97 3.97 0 0 1 .7-.419 4.279 4.279 0 0 1 .767-.244 4.186 4.186 0 0 1 1.011-.087 3 3 0 0 1 .976.192 1.509 1.509 0 0 1 .872.784 2.369 2.369 0 0 1 .174 1.063 7.555 7.555 0 0 1-.14 1.186q-.1.489-.383 1.394-.1.349-.261.75a4.107 4.107 0 0 1-.331.68q.384-.139.767-.244a7 7 0 0 1 .907-.174l.628-.087q.383-.052.785-.1c.267-.035.523-.063.767-.087s.424-.035.54-.035c.162 0 .314.006.453.018a1.479 1.479 0 0 1 .453.122.265.265 0 0 1 .157.174.692.692 0 0 1 .035.313.724.724 0 0 1-.122.332.584.584 0 0 1-.313.227c-.094.024-.268.058-.523.1l-.854.157c-.314.058-.623.117-.924.174s-.558.111-.767.157q-1.116.279-1.935.505a12.371 12.371 0 0 0-1.552.54 3.964 3.964 0 0 0-.767.383 3.365 3.365 0 0 1-.942.384.47.47 0 0 1-.54-.278 1 1 0 0 1-.059-.796zm4.6 20.78q0-.872.1-2.423t.262-3.225q.157-1.674.331-3.225t.279-2.424q.07-.592.139-1.238t.174-1.238a1.506 1.506 0 0 1 .262-.575.628.628 0 0 1 .54-.262 1.919 1.919 0 0 1 .8.174q.383.175.314.767c-.046.326-.116.79-.209 1.395s-.186 1.25-.279 1.935-.18 1.36-.261 2.022-.134 1.2-.157 1.622q-.071.872-.174 1.8t-.192 1.813q-.088.889-.174 1.674t-.157 1.412a1.243 1.243 0 0 1-.052.262 1.473 1.473 0 0 1-.158.366 1.351 1.351 0 0 1-.261.314.534.534 0 0 1-.366.139.544.544 0 0 1-.4-.156.951.951 0 0 1-.227-.349 2.372 2.372 0 0 1-.1-.366 1.738 1.738 0 0 1-.032-.213z" class="cls-1" transform="translate(-385.764 -3970.221)"/>
            <path id="패스_222" d="M394.722 4001.283a.875.875 0 0 1-.631-.252 1.279 1.279 0 0 1-.3-.467 2.777 2.777 0 0 1-.118-.415 1.407 1.407 0 0 1-.041-.272c0-.586.035-1.408.105-2.445s.158-2.124.262-3.234c.106-1.131.218-2.217.332-3.231q.174-1.553.279-2.426.069-.589.139-1.234c.046-.43.106-.854.177-1.259a1.866 1.866 0 0 1 .32-.712.954.954 0 0 1 .8-.394 2.254 2.254 0 0 1 .936.2.959.959 0 0 1 .5 1.1c-.048.335-.118.8-.211 1.406s-.188 1.262-.278 1.93q-.139 1.026-.261 2.018c-.081.653-.133 1.191-.155 1.6-.048.6-.107 1.21-.176 1.814s-.134 1.217-.191 1.808-.117 1.154-.175 1.678l-.155 1.4a1.593 1.593 0 0 1-.063.325 1.8 1.8 0 0 1-.192.447 1.686 1.686 0 0 1-.324.39.869.869 0 0 1-.579.225zm1.325-15.69a.3.3 0 0 0-.277.128 1.181 1.181 0 0 0-.207.453c-.066.376-.123.785-.168 1.2s-.093.845-.14 1.24l-.279 2.422c-.114 1.01-.225 2.093-.331 3.219-.1 1.1-.191 2.187-.261 3.217s-.1 1.83-.1 2.4l.028.145a2.209 2.209 0 0 0 .091.318.624.624 0 0 0 .151.23.216.216 0 0 0 .171.062.21.21 0 0 0 .151-.058 1.031 1.031 0 0 0 .2-.238 1.121 1.121 0 0 0 .122-.284 1.176 1.176 0 0 0 .041-.181v-.03l.157-1.412q.086-.782.174-1.669t.192-1.818c.068-.6.126-1.2.173-1.786.023-.414.076-.967.158-1.635s.169-1.339.262-2.026c.091-.67.185-1.324.28-1.941s.162-1.067.209-1.391c.04-.348-.077-.4-.127-.425a1.583 1.583 0 0 0-.67-.14zm-9.728.732a1.107 1.107 0 0 1-.988-.5 1.891 1.891 0 0 1-.279-1.049l.009-.462a.971.971 0 0 1 .743-.65c2.04-.516 4.041-.963 5.962-1.334a31.941 31.941 0 0 1 6.024-.564h.837a7.106 7.106 0 0 1 1.242.11 3.286 3.286 0 0 1 1.159.426 1.247 1.247 0 0 1 .608 1.115 1 1 0 0 1-.051.311.751.751 0 0 1-.408.4l-.075.037h-.083a33.064 33.064 0 0 0-4.937.155c-1.562.172-3.235.388-4.975.644-.448.067-.93.164-1.432.29s-.965.258-1.371.394a6.588 6.588 0 0 0-.89.4 2.29 2.29 0 0 1-1.095.278zm-.616-1.873v.327a1.26 1.26 0 0 0 .174.694.46.46 0 0 0 .442.2 1.621 1.621 0 0 0 .787-.205 7.2 7.2 0 0 1 .986-.438c.428-.144.906-.281 1.425-.411s1.026-.232 1.5-.3c1.748-.256 3.429-.474 5-.646a33.772 33.772 0 0 1 4.943-.162l.023-.015a.32.32 0 0 0 .009-.074.594.594 0 0 0-.3-.56 2.645 2.645 0 0 0-.932-.34 6.568 6.568 0 0 0-1.129-.1h-.837a31.237 31.237 0 0 0-5.9.552c-1.909.368-3.9.813-5.91 1.321a.509.509 0 0 0-.284.158zm4.13-3.938a.806.806 0 0 1-.714-.46 1.309 1.309 0 0 1-.082-1.04.936.936 0 0 1 .378-.525 3.873 3.873 0 0 1 .533-.343 5.71 5.71 0 0 1 .556-.259c.124-.049.225-.092.3-.127a7.238 7.238 0 0 0 .389-.861c.215-.534.418-1.1.6-1.668a7.988 7.988 0 0 0 .216-.861 3.967 3.967 0 0 0 .048-.644c0-.065-.006-.392-.117-.412a.678.678 0 0 0-.39 0 3.1 3.1 0 0 0-.562.3c-.119.071-.225.138-.325.205a1.268 1.268 0 0 1-.536.191.888.888 0 0 1-.944-.438 1.374 1.374 0 0 1-.225-1.019.935.935 0 0 1 .265-.49 4.183 4.183 0 0 1 .341-.3 4.268 4.268 0 0 1 .768-.461 4.555 4.555 0 0 1 .826-.265 4.505 4.505 0 0 1 1.1-.095 3.324 3.324 0 0 1 1.082.213 1.836 1.836 0 0 1 1.056.963 2.7 2.7 0 0 1 .2 1.208 7.955 7.955 0 0 1-.146 1.234c-.072.337-.2.8-.391 1.422-.072.239-.162.5-.27.773l-.007.018.055-.015a7.439 7.439 0 0 1 .949-.183l.627-.087q.385-.053.786-.1t.778-.088c.265-.025.446-.037.572-.037.169 0 .33.007.48.019a1.8 1.8 0 0 1 .545.144.58.58 0 0 1 .343.363 1.022 1.022 0 0 1 .054.46 1.049 1.049 0 0 1-.175.48.9.9 0 0 1-.482.354l-.023.007c-.1.026-.279.062-.544.109l-.853.157-.922.174q-.447.086-.758.155c-.738.185-1.387.354-1.919.5a11.973 11.973 0 0 0-1.51.526 3.724 3.724 0 0 0-.715.355 3.615 3.615 0 0 1-1.034.426l-.023.006a.909.909 0 0 1-.18.017zm1.9-7.876a1.564 1.564 0 0 1 .335.038c.232.042.639.238.639 1.05a4.614 4.614 0 0 1-.057.751 8.51 8.51 0 0 1-.235.945c-.191.6-.4 1.172-.621 1.721a4.75 4.75 0 0 1-.518 1.075l-.045.056-.063.032c-.1.05-.239.111-.426.185a5.061 5.061 0 0 0-.491.23 3.137 3.137 0 0 0-.442.284c-.129.1-.141.154-.141.154l-.008.032a.682.682 0 0 0 .026.549c.067.123.116.123.143.123a.212.212 0 0 0 .038 0 3.076 3.076 0 0 0 .835-.337 4.257 4.257 0 0 1 .831-.417 12.4 12.4 0 0 1 1.581-.55c.545-.151 1.181-.317 1.943-.508.22-.05.479-.1.785-.161l.926-.174.855-.157c.288-.052.425-.082.49-.1a.247.247 0 0 0 .135-.095.4.4 0 0 0 .069-.184.386.386 0 0 0-.015-.164 1.147 1.147 0 0 0-.334-.089c-.131-.011-.275-.016-.425-.016-.1 0-.273.011-.51.034s-.493.051-.756.085l-.783.1-.626.087a6.761 6.761 0 0 0-.866.166c-.242.066-.491.146-.742.236l-.886.322.5-.8a3.807 3.807 0 0 0 .3-.626c.1-.256.186-.5.253-.724.183-.6.31-1.056.377-1.37a7.339 7.339 0 0 0 .133-1.134 2.067 2.067 0 0 0-.15-.923 1.2 1.2 0 0 0-.7-.609 2.7 2.7 0 0 0-.861-.166 3.859 3.859 0 0 0-.932.08 3.974 3.974 0 0 0-.7.223 3.674 3.674 0 0 0-.637.384 3.407 3.407 0 0 0-.275.246.28.28 0 0 0-.085.146.73.73 0 0 0 .126.541c.109.163.2.163.238.163a.383.383 0 0 0 .061-.006.671.671 0 0 0 .279-.091c.109-.073.223-.145.345-.218a3.615 3.615 0 0 1 .685-.358 1.2 1.2 0 0 1 .406-.061zm-4.25 6.037h-.156a1.071 1.071 0 0 1-.869-.552 1.94 1.94 0 0 1-.273-.713q-.054-.318-.089-.567v-.024c-.047-.718-.07-1.347-.07-1.87a14.279 14.279 0 0 1 .142-1.856 5.528 5.528 0 0 1 .091-.652c.037-.176.08-.348.127-.51s.1-.339.161-.519l.227-.68a1.9 1.9 0 0 1 .441-.785 2.98 2.98 0 0 1 .314-.254 1.028 1.028 0 0 1 .541-.177 2.117 2.117 0 0 1 .58.041 2.244 2.244 0 0 1 .531.184.721.721 0 0 1 .418.506l.007.065v.174a1.4 1.4 0 0 1-.1.567q-.074.164-.216.449a11.786 11.786 0 0 0-.432 1.2 6.862 6.862 0 0 0-.233 1.115c-.045.371-.073.771-.084 1.191s-.018.876-.018 1.4c0 .186.006.349.017.5.013.176.019.332.019.477v.349a.907.907 0 0 1-.575.854 1.13 1.13 0 0 1-.497.087zm-.74-1.914c.022.158.051.337.084.538a1.251 1.251 0 0 0 .181.473c.136.215.265.246.35.249h.124a.652.652 0 0 0 .221-.022c.17-.077.2-.158.2-.266v-.349c0-.128-.005-.273-.017-.43s-.018-.344-.018-.546c0-.533.006-1 .017-1.421.012-.44.042-.861.09-1.251a7.5 7.5 0 0 1 .255-1.22 12.334 12.334 0 0 1 .465-1.29c.1-.2.167-.341.212-.442a.785.785 0 0 0 .041-.3v-.119a.218.218 0 0 0-.065-.043 1.568 1.568 0 0 0-.376-.13 1.423 1.423 0 0 0-.4-.029.418.418 0 0 0-.211.057 2.507 2.507 0 0 0-.257.209 1.336 1.336 0 0 0-.26.512l-.224.673c-.057.17-.108.334-.153.493s-.082.306-.117.467a5.077 5.077 0 0 0-.081.589 13.8 13.8 0 0 0-.138 1.783c.013.506.034 1.117.081 1.815z" class="cls-1" transform="translate(-385.052 -3969.509)"/>
        </g>
        <g id="그룹_214" transform="translate(344.03 3933.055)">
            <path id="패스_223" d="M442.931 3993.556a1.007 1.007 0 0 1 .087-.384.857.857 0 0 1 .262-.348 9.438 9.438 0 0 1 1.673-1.046 14.418 14.418 0 0 1 2.075-.837 17 17 0 0 1 2.179-.54 11.479 11.479 0 0 1 1.988-.192 12.192 12.192 0 0 1 1.743.122 2.13 2.13 0 0 1 1.22.506.6.6 0 0 1 .087.436c-.012.221-.076.331-.192.331q-1.464 0-2.685.087a13 13 0 0 0-2.58.47q-.523.176-1.29.419t-1.464.523a3.977 3.977 0 0 0-.523.331c-.209.151-.425.3-.645.454s-.43.291-.628.418a.984.984 0 0 1-.506.192.714.714 0 0 1-.54-.332 1.014 1.014 0 0 1-.261-.61z" class="cls-1" transform="translate(-442.606 -3989.884)"/>
            <path id="패스_224" d="M443.021 3994.111a1.021 1.021 0 0 1-.8-.455 1.177 1.177 0 0 1-.219-1.321 1.187 1.187 0 0 1 .359-.478 9.834 9.834 0 0 1 1.731-1.083 14.8 14.8 0 0 1 2.121-.856 17.493 17.493 0 0 1 2.221-.55 11.842 11.842 0 0 1 2.044-.2 12.469 12.469 0 0 1 1.79.125 2.417 2.417 0 0 1 1.4.6.89.89 0 0 1 .182.682c-.032.594-.4.64-.517.64-.959 0-1.854.029-2.662.086a12.638 12.638 0 0 0-2.515.459c-.335.113-.767.252-1.28.416-.5.158-.977.33-1.429.51a3.829 3.829 0 0 0-.466.3q-.317.229-.652.458c-.223.152-.435.294-.635.423a1.279 1.279 0 0 1-.673.244zm7.462-4.288a11.161 11.161 0 0 0-1.931.187 16.777 16.777 0 0 0-2.138.53 14.025 14.025 0 0 0-2.027.817 9.141 9.141 0 0 0-1.616 1.009.535.535 0 0 0-.164.219.69.69 0 0 0-.062.26.739.739 0 0 0 .191.408c.062.077.18.208.285.208a.68.68 0 0 0 .329-.14c.2-.127.4-.264.62-.414s.431-.3.638-.448a4.376 4.376 0 0 1 .569-.359l.024-.011c.47-.187.971-.366 1.487-.53s.938-.3 1.286-.417a13.335 13.335 0 0 1 2.66-.487c.784-.056 1.65-.085 2.573-.088v-.024a.731.731 0 0 0-.01-.205 1.884 1.884 0 0 0-1.02-.4 11.722 11.722 0 0 0-1.694-.115z" class="cls-1" transform="translate(-441.894 -3989.172)"/>
        </g>
        <g id="그룹_215" transform="translate(345.721 3942.048)">
            <path id="패스_225" d="M448.337 4027.552a.629.629 0 0 1 .14-.593 5.068 5.068 0 0 1 .592-.488 1.268 1.268 0 0 1 .175-.122 3.5 3.5 0 0 0 .3-.209q.156-.122.279-.227c.081-.07.134-.116.157-.139q.209-.209.541-.593a4.772 4.772 0 0 0 .435-.558c.163-.255.308-.482.436-.679a3.4 3.4 0 0 0 .331-.681q.1-.313.279-.732t.349-.854q.174-.435.314-.819a3.16 3.16 0 0 0 .174-.663 2.856 2.856 0 0 1 .3-.854.8.8 0 0 1 .68-.471q.7-.034.872.366a1.162 1.162 0 0 1 .1.715 4.213 4.213 0 0 1-.157.68l-.261.854q-.14.453-.3.888t-.3.784a12.217 12.217 0 0 1-.61 1.256 3.678 3.678 0 0 1-.82 1.045q1.394-.627 2.389-.958a11.877 11.877 0 0 1 1.587-.436q.7-.14 1.342-.244a8.165 8.165 0 0 1 1.308-.105 2.727 2.727 0 0 1 .54.053.408.408 0 0 1 .332.331q.069.488-.227.645a5.024 5.024 0 0 1-.576.261q-.489.175-1.272.4t-1.273.366q-.418.14-.837.262c-.279.082-.57.168-.871.261a7.225 7.225 0 0 0-1.081.384q-.453.209-.871.418t-.854.453a9.577 9.577 0 0 1-1.029.489c-.256.116-.447.2-.575.244s-.331.116-.61.209a1.126 1.126 0 0 1-.872-.087.983.983 0 0 1-.556-.852z" class="cls-1" transform="translate(-447.994 -4018.543)"/>
            <path id="패스_226" d="M448.749 4028.162a1.684 1.684 0 0 1-.7-.17 1.3 1.3 0 0 1-.743-1.1.934.934 0 0 1 .232-.87 5.267 5.267 0 0 1 .616-.51 1.693 1.693 0 0 1 .208-.146 3.043 3.043 0 0 0 .269-.19c.1-.078.19-.151.268-.218s.117-.1.138-.122c.133-.134.31-.327.524-.575a4.348 4.348 0 0 0 .4-.512c.167-.264.313-.491.442-.69a3.035 3.035 0 0 0 .3-.614c.071-.211.167-.465.285-.746s.231-.561.346-.85.219-.557.311-.81a2.849 2.849 0 0 0 .157-.591 3.222 3.222 0 0 1 .33-.964 1.127 1.127 0 0 1 .944-.645h.132a1.031 1.031 0 0 1 1.063.564 1.492 1.492 0 0 1 .128.9 4.6 4.6 0 0 1-.167.719l-.262.855c-.1.309-.2.614-.3.9s-.2.55-.3.794a12.494 12.494 0 0 1-.628 1.292l-.044.079c.447-.182.858-.336 1.226-.458a12.133 12.133 0 0 1 1.633-.448c.468-.093.923-.176 1.347-.245a8.53 8.53 0 0 1 1.36-.109 3.077 3.077 0 0 1 .6.059.732.732 0 0 1 .583.571l.007.034a.862.862 0 0 1-.4.979 5.386 5.386 0 0 1-.613.278c-.334.12-.768.256-1.3.409l-1.274.366c-.269.09-.554.179-.836.261s-.566.168-.866.26a6.939 6.939 0 0 0-1.04.368c-.3.137-.587.277-.863.414s-.55.284-.841.446a10.1 10.1 0 0 1-1.063.505c-.249.113-.45.2-.587.248s-.337.119-.62.213a1.214 1.214 0 0 1-.402.069zm4.458-9.679h-.091a.479.479 0 0 0-.407.3 2.561 2.561 0 0 0-.264.758 3.436 3.436 0 0 1-.19.72c-.094.259-.2.535-.318.829s-.234.578-.35.858-.2.506-.271.71a3.7 3.7 0 0 1-.367.753l-.434.678a4.971 4.971 0 0 1-.464.6c-.228.264-.41.463-.557.61-.026.026-.084.079-.175.156s-.183.153-.291.237a3.838 3.838 0 0 1-.324.228 1.441 1.441 0 0 0-.124.083l-.031.027a4.741 4.741 0 0 0-.554.455c-.022.022-.089.089-.049.3v.022a.653.653 0 0 0 .371.6.816.816 0 0 0 .624.076c.283-.094.484-.163.611-.209s.307-.124.552-.235a9.394 9.394 0 0 0 1-.476c.3-.167.59-.322.868-.46s.577-.283.881-.423a7.48 7.48 0 0 1 1.13-.4c.295-.091.587-.178.867-.26s.551-.167.825-.258l1.285-.37c.516-.149.937-.282 1.254-.395a4.673 4.673 0 0 0 .533-.243c.06-.032.08-.131.059-.293-.019-.065-.042-.07-.075-.076a2.423 2.423 0 0 0-.477-.046 7.851 7.851 0 0 0-1.255.1c-.416.067-.863.148-1.331.242a11.465 11.465 0 0 0-1.547.426c-.653.218-1.446.536-2.358.946l-2.11.95 1.766-1.5a3.372 3.372 0 0 0 .745-.955 11.9 11.9 0 0 0 .594-1.221c.093-.234.191-.495.291-.771s.2-.576.292-.875l.261-.853a3.978 3.978 0 0 0 .145-.625l.005-.03a.863.863 0 0 0-.085-.515c-.044-.117-.201-.175-.46-.175z" class="cls-1" transform="translate(-447.283 -4017.832)"/>
        </g>
        <g id="그룹_216" transform="translate(348.006 3936.339)">
            <path id="패스_227" d="M459.826 4000.94a1.674 1.674 0 0 0-.618-.694 1.845 1.845 0 0 0-.918-.262 2.919 2.919 0 0 0-1.125.206 3.028 3.028 0 0 0-.955.656 4.32 4.32 0 0 0-.731.974 4.6 4.6 0 0 0-.45 1.181 4.191 4.191 0 0 0-.112 1.237 1.289 1.289 0 0 0 .449.9 2.073 2.073 0 0 0 .655.338 2.54 2.54 0 0 0 .844.15 3.181 3.181 0 0 0 .731-.094 2.628 2.628 0 0 0 .843-.394 3.137 3.137 0 0 0 .862-.937 5.193 5.193 0 0 0 .562-1.2 3.194 3.194 0 0 0 .15-1.012 2.025 2.025 0 0 0-.187-1.049zm-1.649 1.724a2.464 2.464 0 0 1-1.087 1.236 1.544 1.544 0 0 1 .037-.749 2.248 2.248 0 0 1 .262-.637 2.723 2.723 0 0 1 1.087-1.162 2.134 2.134 0 0 1-.299 1.313z" class="cls-1" transform="translate(-454.801 -3999.875)"/>
            <path id="패스_228" d="M456.629 4005.5a2.663 2.663 0 0 1-.879-.156 2.232 2.232 0 0 1-.689-.356 1.4 1.4 0 0 1-.489-.983 4.339 4.339 0 0 1 .116-1.262 4.72 4.72 0 0 1 .46-1.208 4.447 4.447 0 0 1 .749-1 3.159 3.159 0 0 1 .989-.679 3.034 3.034 0 0 1 1.171-.215 1.964 1.964 0 0 1 .971.279 1.8 1.8 0 0 1 .659.737 2.154 2.154 0 0 1 .2 1.105 3.308 3.308 0 0 1-.155 1.039 5.336 5.336 0 0 1-.573 1.223 3.268 3.268 0 0 1-.892.969 2.762 2.762 0 0 1-.88.41 3.289 3.289 0 0 1-.758.097zm1.344-5.642a2.872 2.872 0 0 0-1.006.2 2.942 2.942 0 0 0-.917.631 4.221 4.221 0 0 0-.712.95 4.505 4.505 0 0 0-.44 1.153 4.145 4.145 0 0 0-.11 1.2 1.184 1.184 0 0 0 .411.823 2.007 2.007 0 0 0 .622.318 2.449 2.449 0 0 0 .808.144 3.06 3.06 0 0 0 .706-.091 2.541 2.541 0 0 0 .808-.378 3.042 3.042 0 0 0 .83-.9 5.117 5.117 0 0 0 .551-1.174 3.117 3.117 0 0 0 .145-.98 1.942 1.942 0 0 0-.176-1 1.577 1.577 0 0 0-.579-.65 1.738 1.738 0 0 0-.865-.246zm-1.2 3.961l-.029-.128a1.672 1.672 0 0 1 .039-.8 2.283 2.283 0 0 1 .277-.669 2.778 2.778 0 0 1 1.138-1.2l.114-.044.03.119a2.2 2.2 0 0 1-.307 1.385 2.583 2.583 0 0 1-1.141 1.29zm1.378-2.538a3.149 3.149 0 0 0-.909 1.055 2.15 2.15 0 0 0-.25.609 1.58 1.58 0 0 0-.058.557 2.622 2.622 0 0 0 .906-1.121 2.473 2.473 0 0 0 .315-1.103z" class="cls-1" transform="translate(-454.564 -3999.637)"/>
        </g>
        <g id="그룹_217" transform="translate(349.946 3924.11)">
            <path id="패스_229" d="M461.83 3969.289a6.919 6.919 0 0 1-.035-1.238q.034-.714.1-1.517t.227-1.656q.157-.854.366-1.656.138-.489.3-.941a.819.819 0 0 1 .645-.558 1.087 1.087 0 0 1 .7.122.784.784 0 0 1 .488.471 1.63 1.63 0 0 1-.035.558q-.07.349-.174.715c-.07.244-.145.483-.227.715s-.145.419-.192.558a10.144 10.144 0 0 0-.418 1.97q-.14 1.134-.419 2.389a.546.546 0 0 1-.279.383 1.782 1.782 0 0 1-.348.14.482.482 0 0 1-.488-.14q-.21-.21-.211-.315z" class="cls-1" transform="translate(-461.458 -3961.379)"/>
            <path id="패스_230" d="M461.681 3969.373a.812.812 0 0 1-.583-.253.838.838 0 0 1-.3-.516 7.344 7.344 0 0 1-.035-1.281c.023-.479.058-.993.105-1.53s.125-1.106.231-1.686.231-1.139.372-1.68c.094-.33.2-.653.3-.965a1.141 1.141 0 0 1 .885-.77.942.942 0 0 1 .226-.026 1.634 1.634 0 0 1 .675.17 1.084 1.084 0 0 1 .668.687l.006.027a1.916 1.916 0 0 1-.037.674c-.049.245-.11.494-.18.741s-.149.495-.233.732-.144.415-.19.553a9.87 9.87 0 0 0-.4 1.907c-.094.762-.236 1.576-.424 2.419a.872.872 0 0 1-.451.6 2.083 2.083 0 0 1-.416.164.855.855 0 0 1-.219.033zm-.241-.849a.869.869 0 0 0 .118.136c.085.085.121.068.179.054a1.426 1.426 0 0 0 .282-.115c.021-.011.075-.038.109-.172.181-.813.319-1.607.411-2.349a10.579 10.579 0 0 1 .433-2.033c.047-.14.111-.328.194-.563s.153-.46.221-.7.122-.463.168-.69a1.383 1.383 0 0 0 .035-.425.566.566 0 0 0-.305-.244.832.832 0 0 0-.483-.1.5.5 0 0 0-.416.349c-.1.3-.2.612-.291.924-.135.518-.257 1.068-.359 1.626s-.177 1.106-.222 1.625-.081 1.033-.1 1.5a6.672 6.672 0 0 0 .026 1.178z" class="cls-1" transform="translate(-460.746 -3960.667)"/>
        </g>
        <g id="그룹_218" transform="translate(358.605 3933.473)">
            <path id="패스_231" d="M489.378 4003.641a24.414 24.414 0 0 1 .331-3.992q.33-2 .749-3.958c.023-.092.058-.3.1-.61s.093-.651.14-1.011.093-.7.139-1.011.07-.505.07-.575a1.085 1.085 0 0 1 .3-.662 1.127 1.127 0 0 1 .854-.279q.7 0 .889.349a1.878 1.878 0 0 1 .192.907 3.824 3.824 0 0 1-.279 1.22 6.222 6.222 0 0 0-.349 1.325q-.349 2.442-.576 4.01t-.366 2.58q-.14 1.012-.192 1.586t-.052.994a9.361 9.361 0 0 0 .1 1.482q.1.645.174 1.447v.139a.36.36 0 0 1-.227.349 1.117 1.117 0 0 1-.471.1.924.924 0 0 1-.75-.366 2.733 2.733 0 0 1-.471-.994 7.922 7.922 0 0 1-.244-1.412q-.061-.781-.061-1.618z" class="cls-1" transform="translate(-489.053 -3991.216)"/>
            <path id="패스_232" d="M490.2 4007.648a1.255 1.255 0 0 1-1-.487 3.05 3.05 0 0 1-.532-1.111 8.309 8.309 0 0 1-.255-1.471c-.047-.526-.071-1.081-.071-1.65a24.846 24.846 0 0 1 .336-4.045c.22-1.332.473-2.668.752-3.973.016-.066.045-.213.1-.59q.068-.467.139-1.005t.14-1.017c.061-.414.066-.508.066-.527v-.029a1.408 1.408 0 0 1 .383-.856 1.435 1.435 0 0 1 1.092-.382 1.225 1.225 0 0 1 1.174.517 2.206 2.206 0 0 1 .232 1.064 4.085 4.085 0 0 1-.3 1.331 5.95 5.95 0 0 0-.332 1.254q-.35 2.45-.576 4.016t-.366 2.578c-.092.664-.156 1.193-.19 1.572s-.051.7-.051.964a9.075 9.075 0 0 0 .1 1.43c.07.432.13.926.177 1.47v.168a.678.678 0 0 1-.415.644 1.443 1.443 0 0 1-.603.135zm.325-15.858a5.7 5.7 0 0 1-.073.6q-.069.469-.139 1.005t-.14 1.017c-.065.437-.094.575-.111.641-.275 1.284-.526 2.61-.744 3.933a24.214 24.214 0 0 0-.327 3.939c0 .55.023 1.085.068 1.593a7.632 7.632 0 0 0 .233 1.354 2.42 2.42 0 0 0 .411.876.6.6 0 0 0 .5.245.787.787 0 0 0 .335-.074.11.11 0 0 0 .034-.021.09.09 0 0 0 0-.032v-.125c-.046-.522-.1-1-.17-1.409a9.667 9.667 0 0 1-.109-1.534c0-.287.018-.631.054-1.023s.1-.927.194-1.6.215-1.535.367-2.582.342-2.382.575-4.01a6.551 6.551 0 0 1 .365-1.39 3.555 3.555 0 0 0 .259-1.108 1.577 1.577 0 0 0-.152-.751c-.064-.115-.278-.179-.6-.179a.9.9 0 0 0-.618.176.767.767 0 0 0-.211.459z" class="cls-1" transform="translate(-488.341 -3990.505)"/>
        </g>
        <g id="그룹_219" transform="translate(365.578 3932.667)">
            <path id="패스_233" d="M518.192 3996.75q-.28 1.186-.68 2.632t-.784 2.493a.868.868 0 0 1-.418.453 1.178 1.178 0 0 1-.645.157.791.791 0 0 1-.558-.262 1.033 1.033 0 0 1-.157-.837 12.575 12.575 0 0 1 .3-1.5q.191-.731.471-1.6.488-1.43.871-2.772t.767-2.772c.047-.186.087-.354.122-.506a1.748 1.748 0 0 0 .052-.3.6.6 0 0 0-.1-.558.662.662 0 0 0-.488-.174 4.329 4.329 0 0 0-1.673.332 12.153 12.153 0 0 0-1.464.714 5.279 5.279 0 0 0-.628.366 1.686 1.686 0 0 1-.663.261.564.564 0 0 1-.68-.3 1.58 1.58 0 0 1-.227-.784q0-.453.662-.889a7.22 7.22 0 0 1 1.534-.75 14.163 14.163 0 0 1 1.743-.505 10.88 10.88 0 0 1 1.29-.227 4.275 4.275 0 0 1 2.074.3 1.345 1.345 0 0 1 .68 1.447c-.023.256-.047.494-.07.715s-.058.448-.1.679a4.427 4.427 0 0 0 .4-.226 3.014 3.014 0 0 1 .436-.227q1.464-.7 2.824-1.22a8.286 8.286 0 0 1 3-.524 1.933 1.933 0 0 1 .872.192.791.791 0 0 1 .383.784q0 .558-.418.558h-.593a6.231 6.231 0 0 0-2.354.488q-1.2.489-2.214 1.011a11.539 11.539 0 0 0-.976.627 1.762 1.762 0 0 1-1.046.349 1.264 1.264 0 0 1-.419-.052 1.979 1.979 0 0 1-.314-.157q-.209.627-.419 1.272t-.393 1.312zm11.541-2.127a21.141 21.141 0 0 1-2.651 2.353q-1.5 1.133-2.824 1.97-.488.279-1.2.715a2.7 2.7 0 0 1-1.412.436.754.754 0 0 1-.662-.3 1.267 1.267 0 0 1-.209-.75.711.711 0 0 1 .227-.575c.151-.127.273-.227.366-.3q1.08-.593 2.336-1.36t2.405-1.621a25.06 25.06 0 0 0 2.127-1.761 7.935 7.935 0 0 0 1.5-1.813 3.913 3.913 0 0 0 .261-.61c.1-.291.214-.587.331-.889a3.75 3.75 0 0 1 .418-.8.667.667 0 0 1 .523-.349 2.029 2.029 0 0 1 .419.052 1.886 1.886 0 0 1 .453.157.708.708 0 0 1 .313.3.636.636 0 0 1 .034.471q-.174.766-.331 1.447t-.279 1.325q-.122.645-.192 1.325a14.409 14.409 0 0 0-.07 1.482v1.8a15.931 15.931 0 0 0 .1 1.761 6.272 6.272 0 0 0 .3 1.377 4.048 4.048 0 0 1 .227 1.273.453.453 0 0 1-.244.418.9.9 0 0 1-.558.1.916.916 0 0 1-.663-.418 3.879 3.879 0 0 1-.47-.872 7.248 7.248 0 0 1-.314-1.011 6.907 6.907 0 0 1-.157-.872c-.047-.418-.076-.79-.088-1.115s-.017-.651-.017-.977v-2.371zm5.055 2.44q0-.279.052-.854t.122-1.185q.069-.61.122-1.134t.088-.732l.157-.941q.088-.522.174-1.046.087-.523.157-.959a4.345 4.345 0 0 1 .14-.646.766.766 0 0 1 .244-.313.965.965 0 0 1 .593-.14 1.21 1.21 0 0 1 .8.262.809.809 0 0 1 .313.645 5.518 5.518 0 0 1-.244 1.482 16.014 16.014 0 0 0-.383 1.656 5.526 5.526 0 0 1-.069.558c-.047.3-.093.634-.14.994s-.093.7-.14 1.011-.069.506-.069.575c-.023.163-.059.407-.1.732a5.877 5.877 0 0 1-.226.976 3.864 3.864 0 0 1-.384.854.644.644 0 0 1-.54.366.557.557 0 0 1-.505-.244 1.315 1.315 0 0 1-.192-.593 3.63 3.63 0 0 1 0-.715c.018-.243.03-.446.03-.609z" class="cls-1" transform="translate(-511.276 -3988.649)"/>
            <path id="패스_234" d="M515.013 4002.1h-.079a1.1 1.1 0 0 1-.779-.365 1.313 1.313 0 0 1-.242-1.1 13.117 13.117 0 0 1 .3-1.543c.128-.491.289-1.037.476-1.621.323-.946.614-1.873.868-2.762s.508-1.807.766-2.766c.044-.178.085-.345.119-.494a1.7 1.7 0 0 0 .044-.228l.005-.054c.029-.159.01-.245-.015-.27a.327.327 0 0 0-.258-.079 4.037 4.037 0 0 0-1.549.307 12.007 12.007 0 0 0-1.426.7 5.162 5.162 0 0 0-.606.353 2.019 2.019 0 0 1-.789.313 1.076 1.076 0 0 1-.236.027.869.869 0 0 1-.786-.484 1.907 1.907 0 0 1-.269-.944 1.467 1.467 0 0 1 .809-1.161 7.611 7.611 0 0 1 1.6-.784 14.406 14.406 0 0 1 1.784-.517 11.106 11.106 0 0 1 1.333-.233c.157-.009.3-.012.435-.012a4.159 4.159 0 0 1 1.809.34 1.644 1.644 0 0 1 .862 1.76c-.024.267-.048.506-.071.728v.03c.089-.048.184-.093.283-.136.97-.461 1.928-.875 2.836-1.225a8.651 8.651 0 0 1 3.115-.545 2.26 2.26 0 0 1 1.017.226 1.089 1.089 0 0 1 .564 1.076c0 .819-.569.883-.744.883h-.589a5.948 5.948 0 0 0-2.231.464c-.793.322-1.529.658-2.187 1-.3.173-.621.378-.936.6a2.092 2.092 0 0 1-1.235.409 1.544 1.544 0 0 1-.534-.073h-.008q-.15.453-.3.915c-.138.427-.266.861-.378 1.29-.184.783-.414 1.673-.681 2.637s-.535 1.815-.793 2.518a1.193 1.193 0 0 1-.566.626 1.51 1.51 0 0 1-.738.194zm2.128-10.841a2.032 2.032 0 0 1-.06.337q-.053.229-.123.511c-.26.968-.518 1.9-.77 2.783-.257.9-.552 1.836-.877 2.787-.182.567-.338 1.1-.463 1.581a12.26 12.26 0 0 0-.289 1.461c-.047.395.035.531.072.571a.464.464 0 0 0 .337.158.828.828 0 0 0 .469-.116.557.557 0 0 0 .272-.283c.25-.683.512-1.514.776-2.466s.492-1.837.677-2.62c.118-.449.248-.895.39-1.333s.28-.856.419-1.276l.128-.385.348.209a1.625 1.625 0 0 0 .26.131.956.956 0 0 0 .3.032 1.435 1.435 0 0 0 .857-.288 11.837 11.837 0 0 1 1-.646c.687-.355 1.441-.7 2.253-1.03a6.591 6.591 0 0 1 2.476-.511h.593a.127.127 0 0 0 .052-.008s.041-.046.041-.225c0-.391-.148-.465-.2-.493a1.615 1.615 0 0 0-.726-.157 8 8 0 0 0-2.882.5c-.892.344-1.835.75-2.8 1.21a2.816 2.816 0 0 0-.4.207 4.843 4.843 0 0 1-.43.243l-.595.3.13-.652c.044-.221.078-.44.1-.651s.046-.456.07-.71c.049-.765-.261-1.009-.5-1.125a4.012 4.012 0 0 0-1.915-.264 10.839 10.839 0 0 0-1.237.219 13.836 13.836 0 0 0-1.7.494 6.928 6.928 0 0 0-1.465.716c-.235.155-.516.388-.516.617a1.269 1.269 0 0 0 .185.624c.079.142.154.153.219.153a.494.494 0 0 0 .1-.013 1.4 1.4 0 0 0 .551-.213 5.786 5.786 0 0 1 .666-.389 12.5 12.5 0 0 1 1.486-.725 4.683 4.683 0 0 1 1.8-.356.98.98 0 0 1 .718.269.9.9 0 0 1 .203.822zm13.711 10.62a1.381 1.381 0 0 1-.16-.009 1.224 1.224 0 0 1-.889-.55 4.191 4.191 0 0 1-.511-.945 7.6 7.6 0 0 1-.328-1.056 7.312 7.312 0 0 1-.164-.914c-.047-.417-.077-.8-.089-1.136-.012-.318-.018-.651-.018-.987v-1.577a22.517 22.517 0 0 1-2.128 1.819c-1 .756-1.959 1.425-2.847 1.985q-.5.29-1.207.718a3.024 3.024 0 0 1-1.581.483 1.066 1.066 0 0 1-.928-.435 1.588 1.588 0 0 1-.269-.937 1.025 1.025 0 0 1 .342-.824c.157-.132.284-.235.381-.308l.039-.024c.716-.393 1.5-.848 2.322-1.352s1.626-1.043 2.382-1.6a25.161 25.161 0 0 0 2.1-1.738 7.642 7.642 0 0 0 1.439-1.738 3.409 3.409 0 0 0 .237-.558q.159-.439.334-.9a4.046 4.046 0 0 1 .456-.872.968.968 0 0 1 .789-.488 2.358 2.358 0 0 1 .486.06 2.253 2.253 0 0 1 .531.184 1.034 1.034 0 0 1 .453.431.953.953 0 0 1 .065.706c-.115.505-.225.988-.33 1.442s-.2.89-.276 1.312-.143.854-.188 1.3a14.206 14.206 0 0 0-.068 1.449v1.8a15.834 15.834 0 0 0 .1 1.725 6.04 6.04 0 0 0 .282 1.31 4.4 4.4 0 0 1 .243 1.376.779.779 0 0 1-.408.7 1.184 1.184 0 0 1-.592.148zm-1.506-8.789v3.191c0 .329.006.653.017.964s.04.686.086 1.092a6.607 6.607 0 0 0 .15.834 6.863 6.863 0 0 0 .3.965 3.518 3.518 0 0 0 .431.8.6.6 0 0 0 .428.286.876.876 0 0 0 .094.006.539.539 0 0 0 .273-.069.132.132 0 0 0 .08-.136 3.736 3.736 0 0 0-.21-1.169 6.635 6.635 0 0 1-.311-1.448 16.325 16.325 0 0 1-.106-1.793v-1.8a14.908 14.908 0 0 1 .072-1.516c.047-.461.113-.916.2-1.352s.176-.879.281-1.337l.331-1.446a.347.347 0 0 0 0-.243.387.387 0 0 0-.174-.161 1.587 1.587 0 0 0-.376-.13 1.751 1.751 0 0 0-.35-.045c-.1 0-.2.131-.256.21a3.418 3.418 0 0 0-.382.732c-.116.3-.225.594-.329.882a4 4 0 0 1-.289.667 8.261 8.261 0 0 1-1.557 1.885 25.658 25.658 0 0 1-2.154 1.784c-.772.573-1.589 1.124-2.43 1.637-.826.5-1.609.961-2.329 1.356-.087.066-.2.157-.333.271-.028.023-.111.094-.111.327a.957.957 0 0 0 .149.562.426.426 0 0 0 .4.159 2.388 2.388 0 0 0 1.242-.388c.474-.289.882-.531 1.211-.719.86-.544 1.8-1.2 2.789-1.948a20.929 20.929 0 0 0 2.609-2.317zm5.392 5.748a.87.87 0 0 1-.779-.393 1.639 1.639 0 0 1-.242-.737 3.916 3.916 0 0 1 0-.778c.023-.24.034-.429.034-.579 0-.2.018-.487.054-.884s.075-.783.123-1.193.087-.781.121-1.128.066-.608.09-.754l.331-1.987.157-.957a4.5 4.5 0 0 1 .153-.7 1.1 1.1 0 0 1 .349-.464 1.247 1.247 0 0 1 .8-.211 1.531 1.531 0 0 1 1.01.337 1.137 1.137 0 0 1 .431.9 5.876 5.876 0 0 1-.256 1.571 15.82 15.82 0 0 0-.372 1.6c0 .073-.018.215-.073.575q-.07.451-.138.986t-.14 1.017c-.064.43-.066.519-.066.528v.047l-.1.731a6.235 6.235 0 0 1-.239 1.03 4.2 4.2 0 0 1-.416.926.949.949 0 0 1-.832.518zm1.186-10.111c-.3 0-.381.061-.39.068a.437.437 0 0 0-.145.18 4.128 4.128 0 0 0-.12.575l-.158.96-.331 1.988c-.022.13-.05.369-.084.711s-.076.729-.122 1.138-.087.8-.122 1.178-.05.649-.05.825-.012.379-.037.641a3.44 3.44 0 0 0 0 .652 1.008 1.008 0 0 0 .142.449c.02.031.061.094.232.094.033 0 .132 0 .264-.212a3.557 3.557 0 0 0 .35-.782 5.63 5.63 0 0 0 .215-.923l.1-.713c0-.071.016-.216.073-.6q.069-.467.139-1.005t.141-1a5.046 5.046 0 0 0 .066-.508v-.056a16.3 16.3 0 0 1 .391-1.69 5.239 5.239 0 0 0 .231-1.392.489.489 0 0 0-.2-.4.892.892 0 0 0-.585-.177z" class="cls-1" transform="translate(-510.564 -3987.937)"/>
        </g>
        <path id="패스_235" d="M617.785 3908.463c-.732.783-.46 1.66-.648 2.664a6.928 6.928 0 0 1-1.763 3.2 14.81 14.81 0 0 1-2.621 2.063 19.753 19.753 0 0 0-1.78 1.2c-1.071.88.135 2.441 1.159 2.984a7.114 7.114 0 0 0 2.895.434 5.311 5.311 0 0 0 2.775-.617c1.22-.546 2.019-1.661 3.28-2.162a3.159 3.159 0 0 1 2.291.224c.012.335-.347.727-.561.978a10.435 10.435 0 0 1-1.321 1.357 29.921 29.921 0 0 1-3.592 2.7c-1.346.8-2.532 1.774-3.825 2.631-.688.455-1.418.849-2.143 1.247-.645.354-1.917.8-2.009 1.578-.048.02-.078-.01-.126.014a11.8 11.8 0 0 0 .407 2.423 5.953 5.953 0 0 0 1.908 2.836 3.652 3.652 0 0 0 2.016.262 12.934 12.934 0 0 0 3.3-.971 20.4 20.4 0 0 0 3.109-1.615 29.024 29.024 0 0 1 7.082-2.964c.978-.322 1.877-.8 2.845-1.139.938-.327 1.924-.571 2.857-.924a15.99 15.99 0 0 0 3.122-1.825 4.155 4.155 0 0 0 1.071-.821 1.745 1.745 0 0 0 .205-1.021c.044-.811-.206-1.172-1-1.69a5.574 5.574 0 0 0-3.107-.416 20.464 20.464 0 0 0-3.6 1 29.162 29.162 0 0 0-3.319 1.336 41.893 41.893 0 0 1-7.88 2.166 33.86 33.86 0 0 1-3.71.621 5.322 5.322 0 0 0 1.384-.933c.6-.431 1.276-.789 1.893-1.222 1.237-.869 2.508-1.749 3.651-2.674.608-.492 1.317-.959 1.86-1.5.432-.429.594-1.032 1.049-1.451.774-.713 2.711.225 3.647.324a25.715 25.715 0 0 0 3.568.343c.439-.016.484-.055.669-.378a3.031 3.031 0 0 0 .449-1.677c-.249-.886-2.083-1.483-2.912-1.7a23.748 23.748 0 0 0-4.681-.847 15.145 15.145 0 0 1-3.9-.267c.035-.939.1-1.881.151-2.82.06-1.114.279-2.258-.444-3.24a1.3 1.3 0 0 0-.753-.52 7.216 7.216 0 0 0-2.493-.226c-.6.142-.594.711-.621 1.2" class="cls-2" transform="translate(-213.08)"/>
        <path id="패스_236" d="M647.8 3980.524c-.6.851-1.474 1.263-2.147 2.019a6.925 6.925 0 0 0-1.266 2.672 37.937 37.937 0 0 0-1.16 7.846c-.129 1.9-.292 3.773-.508 5.669l-.234 2.055c-.143 1.228-.071 2.415-.2 3.636-.246 2.32-.529 4.638-.794 6.957-.075.662-.136 1.328-.226 1.988a19.148 19.148 0 0 1-.526 1.872c-.185.779-.417 1.542-.631 2.3 1.289.343 2.5-1.542 2.978-2.815.831-2.218 1.408-4.642 2.048-6.949.786-2.835 1.653-5.855 1.437-8.85a47.736 47.736 0 0 1-.219-7.676 61.9 61.9 0 0 1 .751-6.5c.268-1.37.524-2.717.684-4.113" class="cls-2" transform="translate(-233.884 -50.183)"/>
        <g id="그룹_220" transform="translate(360.528 3925.692)">
            <path id="패스_237" d="M495.357 3968.891v-2.56h-.886v-.342h2.169v.342h-.886v2.56z" class="cls-1" transform="translate(-494.471 -3965.9)"/>
            <path id="패스_238" d="M502.879 3970.367a.8.8 0 0 1-.529-.165.565.565 0 0 1-.2-.455v-.109a.6.6 0 0 1 .189-.459.878.878 0 0 1 .612-.177h.559v-.129a.444.444 0 0 0-.107-.327.478.478 0 0 0-.348-.107.858.858 0 0 0-.336.061 1.938 1.938 0 0 0-.3.161l-.193-.29a1.822 1.822 0 0 1 .362-.2 1.231 1.231 0 0 1 .467-.083 1.165 1.165 0 0 1 .338.047.75.75 0 0 1 .264.137.642.642 0 0 1 .173.221.684.684 0 0 1 .062.3v1.541h-.374v-.265a.422.422 0 0 1-.087.11.605.605 0 0 1-.119.087.814.814 0 0 1-.191.074 1.021 1.021 0 0 1-.242.027zm.636-1.034h-.551a.491.491 0 0 0-.328.088.314.314 0 0 0-.1.245v.057a.257.257 0 0 0 .113.233.486.486 0 0 0 .27.073.838.838 0 0 0 .252-.034.652.652 0 0 0 .2-.1.355.355 0 0 0 .115-.139.52.52 0 0 0 .034-.2z" class="cls-1" transform="translate(-499.743 -3967.344)"/>
            <path id="패스_239" d="M510.642 3969.279l.725 1.143h-.467l-.511-.885-.523.885h-.446l.736-1.143-.7-1.059h.471l.487.813.5-.813h.435z" class="cls-1" transform="translate(-504.726 -3967.432)"/>
            <path id="패스_240" d="M523.032 3968.891h-.419l-.306-.854H521.2l-.306.854h-.406l1.078-2.9h.386zm-1.714-1.2h.869l-.241-.68-.057-.155c-.017-.044-.031-.087-.044-.129l-.042-.131c-.015-.046-.032-.1-.051-.169q-.032.1-.052.171c-.013.047-.027.09-.04.131l-.042.127c-.014.044-.033.1-.054.155z" class="cls-1" transform="translate(-512.321 -3965.9)"/>
            <path id="패스_241" d="M530.885 3968.093a1.272 1.272 0 0 1 .449.068 1.306 1.306 0 0 1 .312.173l-.185.294a.933.933 0 0 0-.284-.151 1.023 1.023 0 0 0-.292-.038.605.605 0 0 0-.21.037.464.464 0 0 0-.177.114.57.57 0 0 0-.122.2.807.807 0 0 0-.046.29v.278a.881.881 0 0 0 .046.3.547.547 0 0 0 .125.206.49.49 0 0 0 .181.114.627.627 0 0 0 .211.036.981.981 0 0 0 .361-.057 1.066 1.066 0 0 0 .259-.145l.189.3a1.181 1.181 0 0 1-.314.175 1.363 1.363 0 0 1-.5.078.92.92 0 0 1-.707-.265 1.044 1.044 0 0 1-.248-.741v-.278a1.191 1.191 0 0 1 .069-.421.879.879 0 0 1 .191-.31.8.8 0 0 1 .3-.194 1.1 1.1 0 0 1 .392-.063z" class="cls-1" transform="translate(-518.807 -3967.344)"/>
            <path id="패스_242" d="M537.979 3968.093a1.266 1.266 0 0 1 .448.068 1.293 1.293 0 0 1 .312.173l-.185.294a.938.938 0 0 0-.284-.151 1.022 1.022 0 0 0-.291-.038.6.6 0 0 0-.21.037.466.466 0 0 0-.177.114.574.574 0 0 0-.122.2.812.812 0 0 0-.046.29v.278a.887.887 0 0 0 .046.3.549.549 0 0 0 .125.206.483.483 0 0 0 .181.114.627.627 0 0 0 .211.036.98.98 0 0 0 .36-.057 1.067 1.067 0 0 0 .259-.145l.189.3a1.181 1.181 0 0 1-.314.175 1.364 1.364 0 0 1-.5.078.92.92 0 0 1-.707-.265 1.045 1.045 0 0 1-.248-.741v-.278a1.193 1.193 0 0 1 .069-.421.883.883 0 0 1 .191-.31.81.81 0 0 1 .3-.194 1.1 1.1 0 0 1 .393-.063z" class="cls-1" transform="translate(-523.675 -3967.344)"/>
            <path id="패스_243" d="M545.1 3968.093a.978.978 0 0 1 .719.262 1 1 0 0 1 .263.74v.27a1 1 0 0 1-.263.74 1.117 1.117 0 0 1-1.437 0 1 1 0 0 1-.264-.74v-.27a1 1 0 0 1 .264-.742.979.979 0 0 1 .718-.26zm0 1.932a.557.557 0 0 0 .425-.171.729.729 0 0 0 .163-.521v-.206a.728.728 0 0 0-.163-.521.613.613 0 0 0-.849 0 .733.733 0 0 0-.163.521v.206a.734.734 0 0 0 .163.521.56.56 0 0 0 .424.171z" class="cls-1" transform="translate(-528.543 -3967.344)"/>
            <path id="패스_244" d="M552.486 3968.221h.39v1.369a.591.591 0 0 0 .113.4.46.46 0 0 0 .358.125.6.6 0 0 0 .2-.034.548.548 0 0 0 .175-.1.485.485 0 0 0 .127-.167.519.519 0 0 0 .049-.229v-1.364h.39v2.2h-.379v-.278a.684.684 0 0 1-.262.236.857.857 0 0 1-.39.082.9.9 0 0 1-.3-.048.663.663 0 0 1-.242-.145.684.684 0 0 1-.163-.243.913.913 0 0 1-.061-.348z" class="cls-1" transform="translate(-534.282 -3967.432)"/>
            <path id="패스_245" d="M562.6 3970.335h-.39v-1.368a.577.577 0 0 0-.116-.4.476.476 0 0 0-.362-.125.6.6 0 0 0-.2.035.522.522 0 0 0-.176.1.528.528 0 0 0-.129.167.513.513 0 0 0-.051.23v1.365h-.39v-2.2h.378v.278a.671.671 0 0 1 .266-.235.877.877 0 0 1 .394-.083.932.932 0 0 1 .3.048.69.69 0 0 1 .245.145.678.678 0 0 1 .165.246.919.919 0 0 1 .06.346z" class="cls-1" transform="translate(-539.976 -3967.344)"/>
            <path id="패스_246" d="M568.675 3967.34h-.362v-.333h.362v-.556h.39v.556h.58v.333h-.58v1.252a.543.543 0 0 0 .02.163.2.2 0 0 0 .059.095.213.213 0 0 0 .09.044.51.51 0 0 0 .113.012.851.851 0 0 0 .29-.052l.06.314a1.085 1.085 0 0 1-.181.05 1.2 1.2 0 0 1-.229.022.611.611 0 0 1-.463-.157.693.693 0 0 1-.149-.491z" class="cls-1" transform="translate(-545.142 -3966.218)"/>
            <path id="패스_247" d="M575 3965.707v.427h-.414v-.427zm-.012.789v2.2h-.388v-2.2z" class="cls-1" transform="translate(-549.447 -3965.707)"/>
            <path id="패스_248" d="M580.287 3970.335h-.39v-1.368a.577.577 0 0 0-.117-.4.476.476 0 0 0-.363-.125.594.594 0 0 0-.2.035.524.524 0 0 0-.306.267.5.5 0 0 0-.051.23v1.365h-.39v-2.2h.378v.278a.671.671 0 0 1 .266-.235.878.878 0 0 1 .395-.083.934.934 0 0 1 .3.048.689.689 0 0 1 .245.145.674.674 0 0 1 .165.246.919.919 0 0 1 .06.346z" class="cls-1" transform="translate(-552.114 -3967.344)"/>
            <path id="패스_249" d="M588.253 3970.307q0 .925-.982.925a1.248 1.248 0 0 1-.41-.064 1.153 1.153 0 0 1-.322-.169l.177-.306a.975.975 0 0 0 .255.133.929.929 0 0 0 .312.052.606.606 0 0 0 .432-.139.568.568 0 0 0 .147-.432v-.27a.519.519 0 0 1-.262.223 1.017 1.017 0 0 1-.37.066.815.815 0 0 1-.638-.244 1 1 0 0 1-.219-.694v-.35a1.155 1.155 0 0 1 .065-.4.834.834 0 0 1 .179-.3.765.765 0 0 1 .276-.185.938.938 0 0 1 .354-.065.8.8 0 0 1 .4.086.691.691 0 0 1 .215.183v-.229h.39zm-.386-1.405a.37.37 0 0 0-.042-.169.474.474 0 0 0-.121-.151.615.615 0 0 0-.185-.106.644.644 0 0 0-.232-.041.469.469 0 0 0-.388.173.758.758 0 0 0-.139.487v.23a.747.747 0 0 0 .141.486.468.468 0 0 0 .386.174.671.671 0 0 0 .226-.038.547.547 0 0 0 .183-.111.537.537 0 0 0 .125-.175.558.558 0 0 0 .046-.231z" class="cls-1" transform="translate(-557.535 -3967.344)"/>
        </g>
        <path id="패스_250" d="M696.238 4002.471a2.484 2.484 0 0 0 0-2.365 4.01 4.01 0 0 1-.431-1.987c-.028-.561-.2-1.1-.242-1.656-.056-.7 0-1.429 0-2.129-1.025-.056-2.06.029-3.079-.056-1.1-.093-2.185-.285-3.283-.385a11.263 11.263 0 0 0-3.4.155c-.557.124-1.253.3-1.435.88l-.071.067a8.387 8.387 0 0 0-.606 1.371 18.63 18.63 0 0 0 .142 3.191c.033.982.267 1.947.222 2.921a2.62 2.62 0 0 0 .072 1.245 3.715 3.715 0 0 1 .248.657c.051.194.035.479.1.655.221.6 1.705.55 2.3.572a16.727 16.727 0 0 0 3.729-.52 18.154 18.154 0 0 1 3.41-.2 7.65 7.65 0 0 0 1.539.034c.324-.08.3-.392.321-.711a5.437 5.437 0 0 1-.006-1.05c.086-.277.348-.442.47-.689zm-2.076-.694a1.415 1.415 0 0 0-.239.187c-.015.118-.047.317-.1.6a2.932 2.932 0 0 1-.3.838 1.293 1.293 0 0 1-.447.479 1.019 1.019 0 0 1-.54.177.2.2 0 0 1-.121-.042.609.609 0 0 0-.078-.052 1.269 1.269 0 0 0-.666-.333q-.375-.063-.4-.063c-.145-.013-.225.1-.239.013s.069.033.25.033h.905c.16 0 .292-.323.4-.643a5.046 5.046 0 0 0 .2-1.091l-1.124-.03c-.048.174-.261.242-.64.244s-.546-.108-.5-.317l.26-1.44-1.186.008a3.591 3.591 0 0 1-1.259 2.761 5.011 5.011 0 0 1-1.654.868q-.354.051-.38-.115t.2-.26a3.388 3.388 0 0 0 1.134-.838 2.962 2.962 0 0 0 .771-2.285h-.709a2 2 0 0 0-.338-.046 1.543 1.543 0 0 1-.224 0l-.218-.569a.935.935 0 0 0 .344.155c.187.021.315.146.384.146h3.195l.125-.466a.233.233 0 0 1 .374-.129c.194.108.35.168.468.244.36.236.467.38.317.464a.62.62 0 0 0-.234.385l-.156 1.072h1.063l.146-.538a.254.254 0 0 1 .369-.128 4.27 4.27 0 0 1 .525.248c.346.247.453.373.322.463zm.213-3.032a5.036 5.036 0 0 0-.452.317c-.139.132-.248.231-.328.3a.324.324 0 0 1-.266.078c-.11-.021-.46-.152-1.088-.4a2.97 2.97 0 0 1-1.576-1.248v1.446c0 .216-.25.347-.628.4s-.628-.028-.628-.229v-1.144a3.516 3.516 0 0 1-1.589.853 7.554 7.554 0 0 1-1.659.343.41.41 0 0 1-.38-.14c-.073-.1.025-.182.281-.245a5.4 5.4 0 0 0 1.48-.382c.7-.305 1.212-.411 1.533-1.039h-2.269c-.09 0-.208-.151-.354-.137a.557.557 0 0 1-.261-.058l-.229-.581c.035.007.158.212.37.236s.383.226.515.226h2.562v-1.084c-.628.021-1 .033-1.464.037l-.734.005c-.215 0-.342-.055-.4-.167s.032-.177.261-.2a25.406 25.406 0 0 0 2.655-.365 5.421 5.421 0 0 0 2.312-.77c.027.028.116.109.266.244s.286.265.411.39q.354.322.079.364c-.184.028-.348.059-.494.094a5.555 5.555 0 0 1-.63.114c-.337.049-.69.09-1 .125v1.209h2.019l.218-.646c.091-.159.219-.316.385-.26a3.059 3.059 0 0 1 .822.437.637.637 0 0 1 .26.491.368.368 0 0 1-.364.293h-3.184c.444.628.992.593 1.644.784a8.76 8.76 0 0 0 1.737.28c.21.012.267-.03.167.029z" class="cls-1" transform="translate(-263.762 -59.316)"/>
    </g>
</svg>
