<svg xmlns="http://www.w3.org/2000/svg" width="196.775" height="88.44" viewBox="0 0 196.775 88.44">
    <defs>
        <style>
            .cls-1{fill:#231815}.cls-2{fill-rule:evenodd}
        </style>
    </defs>
    <g id="그룹_315" transform="translate(-299.28 -955.865)">
        <g id="그룹_305" transform="translate(299.28 990.4)">
            <path id="패스_355" d="M305.738 1046.846c-.1.15-.275.421-.514.814s-.488.824-.746 1.292-.522.936-.8 1.4-.481.852-.617 1.151a11.357 11.357 0 0 1-.745 1.179.906.906 0 0 1-.694.449 1.171 1.171 0 0 1-1.054-.505 1.727 1.727 0 0 1-.231-1.235 7.265 7.265 0 0 1 .745-2.022q.643-1.292 1.439-2.64t1.568-2.527q.771-1.18 1.182-1.685 1.284-1.571 2.518-3.229t2.57-3.229a1.7 1.7 0 0 1 1.336-.843 2.412 2.412 0 0 1 1.208.337 1.243 1.243 0 0 1 .591 1.179.97.97 0 0 1-.205.674l-.463.506q-.514.505-1.156 1.179t-1.31 1.517a14.143 14.143 0 0 1-1.234 1.4 6.213 6.213 0 0 0-1.234 1.741 2.89 2.89 0 0 0 .154.73q.154.506.309.9a8.725 8.725 0 0 0 .385.842q.282.562.617 1.264t.719 1.432q.386.732.746 1.292a9.865 9.865 0 0 0 1.336 1.769q.771.815 1.491 1.6a1.758 1.758 0 0 1 .231.365.959.959 0 0 1 .077.59c-.034.413-.162.674-.385.786a1.35 1.35 0 0 1-.592.168 2.246 2.246 0 0 1-1.1-.337 7.174 7.174 0 0 1-1-.674 12.527 12.527 0 0 1-1.8-2.078q-.823-1.18-1.491-2.359-.411-.729-.925-1.629t-.926-1.564zm14.75-1.741q-.36.282-1.285.927t-1.593 1.208q-.154.113-.489.394t-.719.562c-.256.188-.514.375-.771.562a3.856 3.856 0 0 0-.539.449 1.69 1.69 0 0 1-1.028.394 1.342 1.342 0 0 1-1.08-.421 1.127 1.127 0 0 1-.257-.983 1.347 1.347 0 0 1 .309-.7c.171-.205.36-.421.565-.646q.2-.169.925-.7t1.516-1.1q.8-.561 1.465-1.011a6.575 6.575 0 0 0 .771-.561 13.409 13.409 0 0 0 2.722-2.839 18.421 18.421 0 0 0 1.953-3.96 1.157 1.157 0 0 1 .385-.674 1.362 1.362 0 0 1 .54-.281 1.635 1.635 0 0 1 1.49.393 1.73 1.73 0 0 1 .463 1.628 3.373 3.373 0 0 1-.334.871q-.232.421-.489.983a16.482 16.482 0 0 0-1.516 4.69 30.1 30.1 0 0 0-.437 5.083c0 .637.008 1.291.026 1.966a6.913 6.913 0 0 0 .282 1.853 5.619 5.619 0 0 0 .335.983 10.16 10.16 0 0 1 .385 1.039.632.632 0 0 1-.437.814 1.173 1.173 0 0 1-1.259-.309 4.447 4.447 0 0 1-1.362-1.8 7.256 7.256 0 0 1-.591-2.246 30.357 30.357 0 0 1-.154-3.174 27.96 27.96 0 0 1 .208-3.394zm8.531 6.123a28.324 28.324 0 0 1 .617-6.8 68.491 68.491 0 0 1 2-7.245 10.232 10.232 0 0 0 .283-1.292q.128-.785.283-1.6t.334-1.516a2.351 2.351 0 0 1 .437-.983.921.921 0 0 1 .617-.2c.309-.019.5-.028.565-.028a1.224 1.224 0 0 1 1 .617 2.8 2.8 0 0 1 .179 1.741 19.524 19.524 0 0 1-.9 3.707q-.644 1.853-1.208 3.763-.309 1.18-.642 2.415a17.631 17.631 0 0 0-.488 2.528q-.154 1.179-.283 2.078t-.232 2.471a2.769 2.769 0 0 1-.231.842 1.085 1.085 0 0 1-.9.506 1.245 1.245 0 0 1-1.1-.225 1.081 1.081 0 0 1-.331-.779z" class="cls-1" transform="translate(-299.837 -1031.089)"/>
            <path id="패스_356" d="M322.716 1056.03a1.861 1.861 0 0 1-1.193-.5 4.932 4.932 0 0 1-1.493-1.973 7.736 7.736 0 0 1-.629-2.394 30.756 30.756 0 0 1-.156-3.217c0-.792.033-1.588.1-2.375l-.424.3c-.6.422-1.128.819-1.559 1.181-.123.091-.277.216-.488.394-.233.2-.484.391-.746.582l-.771.562a3.392 3.392 0 0 0-.468.385l-.062.057a2.166 2.166 0 0 1-1.32.492 1.8 1.8 0 0 1-1.444-.59 1.61 1.61 0 0 1-.364-1.381 1.791 1.791 0 0 1 .412-.922q.262-.316.58-.662l.049-.046c.139-.115.439-.343.945-.717.482-.358 1-.728 1.525-1.1s1.025-.715 1.473-1.017a6.909 6.909 0 0 0 .69-.493l.05-.046a13.005 13.005 0 0 0 2.628-2.734 17.929 17.929 0 0 0 1.888-3.827 1.608 1.608 0 0 1 .547-.909 1.827 1.827 0 0 1 .736-.374 2.574 2.574 0 0 1 .491-.05 2.061 2.061 0 0 1 1.424.556 2.19 2.19 0 0 1 .615 2.053l-.007.039a3.906 3.906 0 0 1-.381.994c-.148.269-.307.589-.473.951a16.122 16.122 0 0 0-1.479 4.571 29.758 29.758 0 0 0-.431 5c0 .653.009 1.31.026 1.953a6.44 6.44 0 0 0 .262 1.726l.009.034a5.149 5.149 0 0 0 .306.9 10.545 10.545 0 0 1 .4 1.09 1.112 1.112 0 0 1-.707 1.4 1.422 1.422 0 0 1-.561.107zm-2.169-12.574l-.141 1.149a27.647 27.647 0 0 0-.2 3.34 29.945 29.945 0 0 0 .152 3.123 6.812 6.812 0 0 0 .554 2.105 4 4 0 0 0 1.215 1.609c.321.269.549.346.778.248.206-.088.192-.138.163-.246a9.472 9.472 0 0 0-.364-.975 6.215 6.215 0 0 1-.358-1.05 7.441 7.441 0 0 1-.3-1.965c-.017-.651-.026-1.317-.026-1.978a30.7 30.7 0 0 1 .444-5.164 17.033 17.033 0 0 1 1.56-4.826c.168-.367.337-.708.5-1a2.93 2.93 0 0 0 .283-.729 1.268 1.268 0 0 0-.313-1.186 1.166 1.166 0 0 0-1.077-.277.924.924 0 0 0-.332.186.7.7 0 0 0-.216.405l-.019.062a18.993 18.993 0 0 1-2.007 4.064 13.916 13.916 0 0 1-2.8 2.92 6.554 6.554 0 0 1-.825.6q-.665.448-1.456 1.005c-.523.369-1.031.735-1.507 1.088-.455.338-.743.556-.88.667q-.287.314-.527.6a.863.863 0 0 0-.2.457.667.667 0 0 0 .145.61.886.886 0 0 0 .715.253 1.188 1.188 0 0 0 .706-.272 4.616 4.616 0 0 1 .578-.478l.771-.562c.246-.178.479-.36.694-.541s.4-.328.513-.413c.427-.361.975-.776 1.6-1.215.6-.422 1.03-.728 1.264-.912zm-8.121 11.962a2.724 2.724 0 0 1-1.342-.4 7.659 7.659 0 0 1-1.068-.719 13.05 13.05 0 0 1-1.889-2.175c-.556-.8-1.066-1.6-1.515-2.4q-.411-.729-.924-1.627c-.184-.321-.358-.621-.52-.9-.03.047-.06.1-.092.15-.233.382-.481.811-.734 1.273s-.522.935-.8 1.416c-.265.452-.465.825-.594 1.108l-.019.036a11.879 11.879 0 0 1-.778 1.23 1.354 1.354 0 0 1-1.079.643 1.637 1.637 0 0 1-1.454-.721 2.2 2.2 0 0 1-.305-1.567 7.6 7.6 0 0 1 .791-2.168c.433-.872.923-1.771 1.455-2.671s1.061-1.754 1.579-2.546c.529-.81.926-1.375 1.211-1.725.852-1.042 1.694-2.123 2.505-3.213.828-1.111 1.7-2.2 2.579-3.241a2.145 2.145 0 0 1 1.712-1.024 2.89 2.89 0 0 1 1.445.4 1.7 1.7 0 0 1 .833 1.6 1.426 1.426 0 0 1-.332 1l-.462.505c-.353.348-.739.741-1.163 1.186s-.849.937-1.281 1.483a14.306 14.306 0 0 1-1.266 1.442 5.88 5.88 0 0 0-1.089 1.5 3.682 3.682 0 0 0 .125.5c.1.325.2.616.3.863a8.249 8.249 0 0 0 .367.8q.284.568.621 1.273c.218.459.457.934.711 1.415s.5.9.725 1.257a9.46 9.46 0 0 0 1.28 1.7q.774.819 1.5 1.607a2.167 2.167 0 0 1 .3.471 1.438 1.438 0 0 1 .124.879 1.3 1.3 0 0 1-.644 1.143 1.8 1.8 0 0 1-.813.217zm-7.222-10.012l.385.633c.271.443.584.976.932 1.584s.652 1.144.926 1.631c.434.768.927 1.548 1.466 2.32a12.1 12.1 0 0 0 1.73 2 6.842 6.842 0 0 0 .915.61 1.794 1.794 0 0 0 .867.274.88.88 0 0 0 .376-.117c.037-.019.1-.141.123-.4a.549.549 0 0 0-.027-.333 1.327 1.327 0 0 0-.159-.26q-.714-.78-1.483-1.593a10.4 10.4 0 0 1-1.4-1.855c-.234-.365-.492-.811-.756-1.312s-.506-.98-.728-1.45-.426-.882-.613-1.255a9.084 9.084 0 0 1-.407-.894c-.1-.259-.209-.573-.316-.923a3.192 3.192 0 0 1-.175-.87v-.1l.044-.095a6.706 6.706 0 0 1 1.326-1.877 13.675 13.675 0 0 0 1.19-1.352q.693-.877 1.35-1.565c.431-.452.824-.853 1.167-1.19l.445-.487a.521.521 0 0 0 .08-.35c0-.505-.2-.677-.349-.763a1.921 1.921 0 0 0-.97-.274 1.276 1.276 0 0 0-.95.646l-.021.027c-.874 1.028-1.732 2.106-2.551 3.205s-1.672 2.195-2.532 3.246c-.259.32-.648.873-1.151 1.644s-1.033 1.624-1.556 2.509-1 1.758-1.423 2.609a6.857 6.857 0 0 0-.7 1.875 1.258 1.258 0 0 0 .156.9.683.683 0 0 0 .654.291c.057 0 .168-.068.309-.256a11.017 11.017 0 0 0 .7-1.111c.143-.31.355-.706.63-1.176s.543-.941.79-1.393c.261-.475.515-.916.756-1.311s.415-.672.528-.836zm24.337 6.782a1.467 1.467 0 0 1-1.087-.4 1.549 1.549 0 0 1-.473-1.123 28.91 28.91 0 0 1 .628-6.9 69.512 69.512 0 0 1 2.018-7.3 9.814 9.814 0 0 0 .265-1.219q.128-.791.284-1.612c.106-.557.221-1.078.341-1.547a2.773 2.773 0 0 1 .547-1.187 1.318 1.318 0 0 1 .941-.351c.325-.019.523-.029.595-.029h.041a1.707 1.707 0 0 1 1.374.85 3.193 3.193 0 0 1 .244 2.049 20.115 20.115 0 0 1-.922 3.8c-.421 1.213-.825 2.472-1.2 3.742-.2.773-.416 1.58-.639 2.4a17.231 17.231 0 0 0-.475 2.459q-.155 1.191-.284 2.089c-.084.585-.161 1.4-.228 2.435a3.3 3.3 0 0 1-.273 1.011 1.524 1.524 0 0 1-1.262.78 2.983 2.983 0 0 1-.434.054zm4.039-20.7c-.078 0-.25.011-.517.027a.76.76 0 0 0-.31.058 2.009 2.009 0 0 0-.308.761c-.116.45-.226.949-.328 1.486s-.2 1.068-.28 1.588a10.627 10.627 0 0 1-.3 1.355 68.5 68.5 0 0 0-1.994 7.206 27.986 27.986 0 0 0-.607 6.682.529.529 0 0 0 .6.574 1.969 1.969 0 0 0 .289-.024c.287-.045.488-.131.533-.231a2.315 2.315 0 0 0 .191-.7c.067-1.031.146-1.875.233-2.485s.179-1.288.282-2.073a18.273 18.273 0 0 1 .5-2.591q.334-1.232.642-2.411c.384-1.3.793-2.573 1.219-3.8a19.139 19.139 0 0 0 .877-3.616 2.305 2.305 0 0 0-.117-1.43.741.741 0 0 0-.604-.373z" transform="translate(-299.28 -1030.532)"/>
        </g>
        <g id="그룹_306" transform="translate(338.951 984.595)">
            <path id="패스_357" d="M386.09 1040.48q.1-.411.77-.616 4.473-1.13 8.738-1.953a46.329 46.329 0 0 1 8.788-.823h1.234a10.062 10.062 0 0 1 1.747.155 4.361 4.361 0 0 1 1.542.565 1.356 1.356 0 0 1 .668 1.234 1.015 1.015 0 0 1-.051.309c-.035.1-.154.205-.36.308a49.118 49.118 0 0 0-7.349.232q-3.5.385-7.349.951-1.029.154-2.158.437t-2.056.592a10.115 10.115 0 0 0-1.388.616 2.886 2.886 0 0 1-1.388.36 1.165 1.165 0 0 1-1.054-.514 2.309 2.309 0 0 1-.334-1.285zm1.542-11.2q-.1-1.592-.1-2.724a20.541 20.541 0 0 1 .205-2.672 7.825 7.825 0 0 1 .129-.925c.052-.24.111-.479.18-.72s.145-.488.231-.746.2-.591.334-1a2.437 2.437 0 0 1 .514-.95 3.946 3.946 0 0 1 .411-.334 1.052 1.052 0 0 1 .565-.18 2.572 2.572 0 0 1 .72.051 2.824 2.824 0 0 1 .668.231.6.6 0 0 1 .359.411v.257a1.62 1.62 0 0 1-.1.642q-.1.232-.309.642a17.546 17.546 0 0 0-.668 1.851 10.5 10.5 0 0 0-.359 1.721q-.1.848-.129 1.8t-.025 2.082c0 .274.008.531.025.771s.026.463.026.668v.514a.857.857 0 0 1-.566.823 1.654 1.654 0 0 1-.745.077 1.115 1.115 0 0 1-.9-.591 2.354 2.354 0 0 1-.333-.874c-.056-.314-.1-.588-.133-.829zm4.317 3.392a.927.927 0 0 1 .386-.514 5.17 5.17 0 0 1 .72-.463 7.884 7.884 0 0 1 .771-.36c.257-.1.453-.188.591-.257a7.959 7.959 0 0 0 .694-1.465q.488-1.207.9-2.492a12.49 12.49 0 0 0 .333-1.336 6.288 6.288 0 0 0 .077-1.028q0-.975-.565-1.079a1.48 1.48 0 0 0-.823.025 5.056 5.056 0 0 0-.925.488c-.172.1-.334.206-.488.308a1.4 1.4 0 0 1-.591.205.863.863 0 0 1-.925-.437 1.554 1.554 0 0 1-.257-1.156.89.89 0 0 1 .257-.463 5.7 5.7 0 0 1 .463-.411 5.834 5.834 0 0 1 1.028-.617 6.317 6.317 0 0 1 1.131-.36 6.121 6.121 0 0 1 1.49-.128 4.412 4.412 0 0 1 1.439.283 2.226 2.226 0 0 1 1.285 1.156 3.493 3.493 0 0 1 .257 1.568 11.142 11.142 0 0 1-.206 1.747q-.154.72-.565 2.056-.153.513-.385 1.1a6.082 6.082 0 0 1-.488 1q.566-.2 1.131-.359a10.313 10.313 0 0 1 1.336-.257l.925-.129q.566-.078 1.157-.154.59-.077 1.13-.129c.36-.034.625-.051.8-.051.239 0 .462.009.668.026a2.183 2.183 0 0 1 .668.179.393.393 0 0 1 .231.257 1.024 1.024 0 0 1 .051.463 1.066 1.066 0 0 1-.18.488.857.857 0 0 1-.462.334q-.207.052-.771.154l-1.259.232c-.463.085-.918.172-1.363.257s-.822.163-1.13.231q-1.646.412-2.853.745a18.039 18.039 0 0 0-2.287.8 5.78 5.78 0 0 0-1.13.565 5.006 5.006 0 0 1-1.388.565.694.694 0 0 1-.8-.411 1.471 1.471 0 0 1-.079-1.179zm6.785 30.631q0-1.284.154-3.572t.386-4.754q.232-2.466.488-4.754t.411-3.572q.1-.873.205-1.825t.257-1.825a2.231 2.231 0 0 1 .386-.848.929.929 0 0 1 .8-.385 2.834 2.834 0 0 1 1.182.257q.565.258.462 1.13-.1.721-.308 2.056t-.411 2.852q-.207 1.517-.385 2.981t-.231 2.39q-.1 1.285-.257 2.647t-.283 2.672q-.129 1.311-.257 2.467t-.231 2.081a1.838 1.838 0 0 1-.077.386 2.185 2.185 0 0 1-.232.54 2 2 0 0 1-.385.463.79.79 0 0 1-.54.205.8.8 0 0 1-.591-.231 1.4 1.4 0 0 1-.334-.514 3.505 3.505 0 0 1-.155-.539 2.566 2.566 0 0 1-.055-.311z" class="cls-1" transform="translate(-385.61 -1018.538)"/>
            <path id="패스_358" d="M399.305 1064.816a1.284 1.284 0 0 1-.93-.372 1.883 1.883 0 0 1-.445-.689 4.08 4.08 0 0 1-.174-.611 2.074 2.074 0 0 1-.061-.4c0-.863.052-2.076.155-3.6s.234-3.13.387-4.767c.156-1.666.321-3.268.489-4.763q.257-2.288.412-3.575.1-.869.2-1.819c.068-.635.157-1.26.261-1.856a2.742 2.742 0 0 1 .472-1.048 1.4 1.4 0 0 1 1.183-.581 3.325 3.325 0 0 1 1.38.3 1.413 1.413 0 0 1 .741 1.623c-.071.494-.174 1.18-.311 2.073s-.277 1.861-.41 2.844q-.205 1.514-.385 2.975c-.119.963-.2 1.756-.228 2.357-.071.889-.158 1.784-.259 2.675s-.2 1.794-.282 2.665-.172 1.7-.258 2.473l-.228 2.062a2.343 2.343 0 0 1-.093.479 2.655 2.655 0 0 1-.283.66 2.5 2.5 0 0 1-.478.574 1.277 1.277 0 0 1-.855.321zm1.953-23.128a.446.446 0 0 0-.409.189 1.742 1.742 0 0 0-.305.668c-.1.555-.182 1.158-.248 1.772q-.1.955-.206 1.829-.154 1.286-.411 3.57c-.168 1.488-.332 3.085-.488 4.745-.153 1.628-.282 3.223-.384 4.742s-.153 2.7-.153 3.539c0 .015.018.094.042.214a3.242 3.242 0 0 0 .135.469.926.926 0 0 0 .223.339.318.318 0 0 0 .252.091.31.31 0 0 0 .222-.085 1.52 1.52 0 0 0 .291-.35 1.671 1.671 0 0 0 .181-.42 1.7 1.7 0 0 0 .06-.267v-.044l.231-2.082q.127-1.153.257-2.461t.283-2.68c.1-.88.185-1.766.255-2.631.033-.611.112-1.426.233-2.41s.249-1.974.386-2.987c.134-.988.272-1.951.413-2.861l.308-2.051c.06-.513-.113-.592-.187-.626a2.343 2.343 0 0 0-.981-.212zm-14.339 1.08a1.631 1.631 0 0 1-1.456-.733 2.785 2.785 0 0 1-.411-1.546l.014-.681a1.432 1.432 0 0 1 1.1-.959c3.007-.76 5.956-1.42 8.787-1.966a47.083 47.083 0 0 1 8.879-.831h1.234a10.538 10.538 0 0 1 1.831.162 4.857 4.857 0 0 1 1.709.629 1.837 1.837 0 0 1 .9 1.642 1.471 1.471 0 0 1-.075.458 1.11 1.11 0 0 1-.6.588l-.111.055h-.123a48.88 48.88 0 0 0-7.277.229c-2.3.254-4.769.573-7.333.949-.66.1-1.371.242-2.111.427s-1.422.381-2.02.58a9.693 9.693 0 0 0-1.312.585 3.381 3.381 0 0 1-1.625.412zm-.908-2.76v.481a1.853 1.853 0 0 0 .256 1.023.678.678 0 0 0 .652.3 2.4 2.4 0 0 0 1.16-.3 10.653 10.653 0 0 1 1.454-.646c.631-.211 1.335-.414 2.1-.605s1.512-.342 2.2-.446c2.577-.377 5.055-.7 7.368-.953a49.791 49.791 0 0 1 7.287-.239l.034-.023a.473.473 0 0 0 .013-.109.875.875 0 0 0-.44-.825 3.906 3.906 0 0 0-1.373-.5 9.645 9.645 0 0 0-1.664-.147h-1.234a46.074 46.074 0 0 0-8.7.814c-2.814.543-5.745 1.2-8.711 1.947a.751.751 0 0 0-.402.227zm6.088-5.805a1.187 1.187 0 0 1-1.052-.678 1.929 1.929 0 0 1-.121-1.532 1.377 1.377 0 0 1 .558-.774 5.669 5.669 0 0 1 .786-.506 8.565 8.565 0 0 1 .819-.382c.182-.073.331-.136.445-.188a10.752 10.752 0 0 0 .574-1.268c.317-.788.616-1.615.886-2.459a11.708 11.708 0 0 0 .318-1.269 5.847 5.847 0 0 0 .071-.949c0-.1-.008-.577-.172-.607a1.006 1.006 0 0 0-.575.005 4.6 4.6 0 0 0-.829.442c-.176.105-.331.2-.48.3a1.889 1.889 0 0 1-.79.282 1.312 1.312 0 0 1-1.391-.646 2.025 2.025 0 0 1-.331-1.5 1.376 1.376 0 0 1 .391-.722 6.21 6.21 0 0 1 .5-.447 6.355 6.355 0 0 1 1.132-.68 6.874 6.874 0 0 1 1.218-.389 6.633 6.633 0 0 1 1.614-.14 4.914 4.914 0 0 1 1.595.314 2.705 2.705 0 0 1 1.556 1.421 3.971 3.971 0 0 1 .293 1.781 11.7 11.7 0 0 1-.215 1.818c-.106.5-.3 1.182-.576 2.1-.105.352-.239.736-.4 1.139 0 .009-.007.018-.011.027l.081-.022a10.925 10.925 0 0 1 1.4-.27c.237-.033.546-.077.924-.128s.764-.1 1.159-.155.782-.1 1.147-.13c.39-.036.658-.054.843-.054.248 0 .486.009.707.027a2.656 2.656 0 0 1 .8.211.858.858 0 0 1 .506.535 1.505 1.505 0 0 1 .08.679 1.545 1.545 0 0 1-.258.707 1.328 1.328 0 0 1-.711.523l-.034.01c-.148.037-.412.09-.8.161l-1.258.231q-.691.128-1.359.256t-1.117.228c-1.088.272-2.044.523-2.829.74a17.586 17.586 0 0 0-2.226.775 5.476 5.476 0 0 0-1.054.523 5.35 5.35 0 0 1-1.525.629l-.034.008a1.351 1.351 0 0 1-.254.02zm2.807-11.609a2.308 2.308 0 0 1 .494.056c.341.062.942.351.942 1.548a6.792 6.792 0 0 1-.084 1.107 12.527 12.527 0 0 1-.346 1.393c-.281.878-.587 1.728-.915 2.537a6.986 6.986 0 0 1-.764 1.584l-.066.082-.093.047c-.146.073-.352.163-.629.274a7.411 7.411 0 0 0-.724.338 4.7 4.7 0 0 0-.652.419c-.19.146-.208.226-.208.227l-.012.049a1 1 0 0 0 .039.809c.1.181.172.181.211.181a.4.4 0 0 0 .056-.005 4.535 4.535 0 0 0 1.23-.5 6.276 6.276 0 0 1 1.225-.614 18.418 18.418 0 0 1 2.331-.811c.8-.222 1.74-.467 2.864-.748.325-.072.706-.15 1.157-.237l1.365-.258 1.26-.231c.425-.077.626-.12.722-.143a.365.365 0 0 0 .2-.139.588.588 0 0 0 .1-.272.567.567 0 0 0-.022-.241 1.682 1.682 0 0 0-.493-.131c-.193-.016-.405-.024-.627-.024-.15 0-.4.017-.752.049s-.726.076-1.114.126-.777.1-1.154.154l-.923.128a10.035 10.035 0 0 0-1.277.245c-.357.1-.724.215-1.093.348l-1.306.474.736-1.178a5.646 5.646 0 0 0 .448-.923c.148-.379.274-.738.373-1.068.27-.879.457-1.557.556-2.019a10.819 10.819 0 0 0 .2-1.671 3.044 3.044 0 0 0-.222-1.36 1.761 1.761 0 0 0-1.028-.9 3.948 3.948 0 0 0-1.269-.245 5.7 5.7 0 0 0-1.374.118 5.86 5.86 0 0 0-1.037.329 5.369 5.369 0 0 0-.939.567 5.034 5.034 0 0 0-.406.362.418.418 0 0 0-.126.216 1.075 1.075 0 0 0 .185.8c.16.24.293.24.35.24a.511.511 0 0 0 .09-.009.989.989 0 0 0 .411-.133c.161-.107.329-.214.508-.321a5.352 5.352 0 0 1 1.01-.528 1.755 1.755 0 0 1 .592-.099zm-6.264 8.9c-.072 0-.148 0-.229-.006a1.576 1.576 0 0 1-1.281-.813 2.855 2.855 0 0 1-.4-1.051q-.079-.47-.131-.835v-.036c-.069-1.058-.1-1.985-.1-2.755a21.036 21.036 0 0 1 .21-2.736 8.107 8.107 0 0 1 .135-.962c.055-.259.118-.512.188-.752s.149-.5.237-.765l.334-1a2.8 2.8 0 0 1 .649-1.156 4.28 4.28 0 0 1 .463-.375 1.5 1.5 0 0 1 .8-.26 3.058 3.058 0 0 1 .855.061 3.283 3.283 0 0 1 .782.271 1.062 1.062 0 0 1 .616.746l.01.094v.257a2.069 2.069 0 0 1-.144.837q-.109.241-.318.662a17.243 17.243 0 0 0-.637 1.771 10.118 10.118 0 0 0-.344 1.644c-.066.546-.108 1.136-.124 1.754s-.026 1.292-.026 2.069c0 .273.008.513.024.735.018.26.027.489.027.7v.514a1.337 1.337 0 0 1-.847 1.259 1.671 1.671 0 0 1-.75.126zm-1.09-2.821c.033.233.075.5.124.793a1.854 1.854 0 0 0 .267.7c.2.316.39.361.516.366.066 0 .126.005.183.005a1 1 0 0 0 .327-.032c.251-.115.3-.234.3-.393v-.514c0-.189-.008-.4-.025-.635s-.026-.508-.026-.8c0-.786.008-1.471.025-2.1.018-.648.062-1.268.132-1.844a11.045 11.045 0 0 1 .376-1.8 18.121 18.121 0 0 1 .686-1.9c.146-.294.246-.5.313-.652a1.155 1.155 0 0 0 .061-.446v-.175a.346.346 0 0 0-.1-.063 2.321 2.321 0 0 0-.554-.191 2.1 2.1 0 0 0-.585-.042.6.6 0 0 0-.311.085 3.6 3.6 0 0 0-.379.307 1.977 1.977 0 0 0-.383.756l-.331.992q-.126.377-.225.726c-.063.221-.121.452-.172.689a7.472 7.472 0 0 0-.12.867 20.355 20.355 0 0 0-.2 2.629c-.001.74.033 1.639.1 2.669z" transform="translate(-385.052 -1017.981)"/>
        </g>
        <g id="그룹_307" transform="translate(365.242 993.689)">
            <path id="패스_359" d="M442.931 1043.614a1.486 1.486 0 0 1 .128-.565 1.266 1.266 0 0 1 .386-.514 13.939 13.939 0 0 1 2.466-1.542 21.177 21.177 0 0 1 3.059-1.234 25.186 25.186 0 0 1 3.212-.8 16.925 16.925 0 0 1 2.93-.283 17.845 17.845 0 0 1 2.57.18 3.14 3.14 0 0 1 1.8.745.88.88 0 0 1 .129.642c-.018.326-.112.488-.283.488q-2.158 0-3.957.129a19.057 19.057 0 0 0-3.8.693q-.771.258-1.9.617t-2.158.771a5.916 5.916 0 0 0-.771.488q-.462.335-.951.668t-.925.616a1.452 1.452 0 0 1-.746.283 1.052 1.052 0 0 1-.8-.489 1.5 1.5 0 0 1-.389-.893z" class="cls-1" transform="translate(-442.451 -1038.2)"/>
            <path id="패스_360" d="M443.555 1044.923a1.5 1.5 0 0 1-1.173-.671 1.735 1.735 0 0 1-.323-1.947 1.75 1.75 0 0 1 .529-.7 14.464 14.464 0 0 1 2.552-1.6 21.738 21.738 0 0 1 3.127-1.262 25.878 25.878 0 0 1 3.274-.812 17.477 17.477 0 0 1 3.013-.29 18.33 18.33 0 0 1 2.639.185 3.558 3.558 0 0 1 2.069.88 1.314 1.314 0 0 1 .268 1.006c-.047.876-.595.944-.762.944-1.413 0-2.733.043-3.924.127a18.685 18.685 0 0 0-3.707.677c-.494.166-1.13.372-1.887.612-.732.233-1.44.486-2.106.752a5.675 5.675 0 0 0-.687.439q-.467.338-.961.675t-.935.624a1.884 1.884 0 0 1-1.006.361zm11-6.321a16.5 16.5 0 0 0-2.846.276 24.788 24.788 0 0 0-3.151.781 20.753 20.753 0 0 0-2.988 1.205 13.478 13.478 0 0 0-2.382 1.487.787.787 0 0 0-.242.323 1.018 1.018 0 0 0-.092.382 1.084 1.084 0 0 0 .282.6c.091.115.265.307.42.307a1 1 0 0 0 .485-.206c.288-.186.592-.389.914-.61s.636-.44.94-.661a6.348 6.348 0 0 1 .838-.529l.036-.016c.693-.277 1.431-.54 2.191-.783s1.383-.444 1.895-.615a19.693 19.693 0 0 1 3.921-.717c1.156-.082 2.432-.125 3.793-.13v-.035a1.068 1.068 0 0 0-.015-.3 2.778 2.778 0 0 0-1.5-.585 17.384 17.384 0 0 0-2.5-.176z" transform="translate(-441.894 -1037.643)"/>
        </g>
        <g id="그룹_308" transform="translate(367.735 1006.945)">
            <path id="패스_361" d="M448.345 1080.141a.928.928 0 0 1 .206-.874 7.548 7.548 0 0 1 .873-.719 1.884 1.884 0 0 1 .258-.18 5.245 5.245 0 0 0 .437-.308q.23-.18.411-.335c.119-.1.2-.171.231-.2q.308-.309.8-.874a7.091 7.091 0 0 0 .642-.822q.359-.566.643-1a5.01 5.01 0 0 0 .488-1q.154-.463.411-1.08t.514-1.259q.256-.642.463-1.208a4.656 4.656 0 0 0 .257-.976 4.212 4.212 0 0 1 .437-1.259 1.181 1.181 0 0 1 1-.693q1.028-.051 1.285.539a1.713 1.713 0 0 1 .154 1.053 6.227 6.227 0 0 1-.232 1l-.385 1.26q-.204.669-.437 1.31-.231.644-.438 1.156a18 18 0 0 1-.9 1.85 5.44 5.44 0 0 1-1.208 1.542q2.055-.926 3.521-1.414a17.433 17.433 0 0 1 2.339-.642q1.026-.205 1.978-.36a11.981 11.981 0 0 1 1.927-.154 4.065 4.065 0 0 1 .8.077.6.6 0 0 1 .489.488q.1.72-.334.951a7.358 7.358 0 0 1-.848.385q-.721.258-1.876.591t-1.876.54q-.616.205-1.234.385c-.411.12-.84.249-1.284.385a10.676 10.676 0 0 0-1.594.566q-.668.308-1.284.617t-1.259.668a14.155 14.155 0 0 1-1.517.72q-.565.256-.848.36t-.9.308a1.66 1.66 0 0 1-1.285-.129 1.449 1.449 0 0 1-.825-1.265z" class="cls-1" transform="translate(-447.84 -1066.86)"/>
            <path id="패스_362" d="M449.443 1081.529a2.473 2.473 0 0 1-1.034-.251 1.913 1.913 0 0 1-1.1-1.625 1.378 1.378 0 0 1 .341-1.283 7.875 7.875 0 0 1 .907-.752 2.527 2.527 0 0 1 .307-.215 4.608 4.608 0 0 0 .4-.28c.149-.116.28-.223.4-.321s.173-.149.2-.18c.2-.2.457-.482.773-.848a6.383 6.383 0 0 0 .593-.754c.246-.39.462-.724.652-1.017a4.493 4.493 0 0 0 .44-.906c.1-.311.246-.685.42-1.1s.34-.826.511-1.252.322-.82.458-1.194a4.2 4.2 0 0 0 .232-.872 4.753 4.753 0 0 1 .487-1.421 1.663 1.663 0 0 1 1.391-.95c.075 0 .136-.005.194-.005a1.519 1.519 0 0 1 1.567.831 2.2 2.2 0 0 1 .188 1.327 6.773 6.773 0 0 1-.246 1.06l-.386 1.26c-.14.456-.29.9-.444 1.333s-.3.812-.443 1.172a18.572 18.572 0 0 1-.925 1.905l-.065.116c.66-.268 1.264-.495 1.807-.675a17.83 17.83 0 0 1 2.406-.66c.69-.137 1.361-.259 1.986-.361a12.54 12.54 0 0 1 2-.161 4.541 4.541 0 0 1 .89.087 1.077 1.077 0 0 1 .859.841l.01.05a1.269 1.269 0 0 1-.584 1.442 7.786 7.786 0 0 1-.9.411c-.492.176-1.133.378-1.911.6s-1.4.4-1.877.54c-.4.133-.817.264-1.232.385s-.834.248-1.277.384a10.263 10.263 0 0 0-1.533.542c-.438.2-.865.407-1.272.61s-.811.418-1.239.658a14.849 14.849 0 0 1-1.567.744c-.367.167-.663.292-.865.367s-.5.174-.913.313a1.773 1.773 0 0 1-.606.105zm6.572-14.267h-.134a.706.706 0 0 0-.6.436 3.782 3.782 0 0 0-.389 1.117 5.041 5.041 0 0 1-.279 1.062q-.208.573-.468 1.222t-.516 1.265c-.165.394-.3.746-.4 1.047a5.467 5.467 0 0 1-.541 1.111q-.282.436-.64 1a7.275 7.275 0 0 1-.684.878c-.336.39-.6.684-.821.9q-.058.057-.258.23c-.127.108-.269.224-.429.349a5.7 5.7 0 0 1-.478.336 1.97 1.97 0 0 0-.183.123l-.045.038a7.234 7.234 0 0 0-.817.671c-.032.033-.131.131-.073.449l.005.034a.96.96 0 0 0 .548.877 1.2 1.2 0 0 0 .919.112c.418-.14.714-.241.9-.308s.452-.182.813-.345a14.037 14.037 0 0 0 1.48-.7c.44-.246.87-.474 1.279-.678s.851-.417 1.3-.623a11.131 11.131 0 0 1 1.665-.592c.434-.134.865-.263 1.278-.384s.812-.245 1.216-.38c.5-.143 1.124-.322 1.895-.545s1.382-.415 1.848-.582a6.863 6.863 0 0 0 .785-.358c.088-.047.117-.192.086-.431-.028-.1-.062-.1-.111-.113a3.632 3.632 0 0 0-.7-.068 11.554 11.554 0 0 0-1.851.148c-.613.1-1.272.219-1.962.357a17.033 17.033 0 0 0-2.28.627c-.962.321-2.132.79-3.475 1.4l-3.11 1.4 2.6-2.2a4.978 4.978 0 0 0 1.1-1.408 17.566 17.566 0 0 0 .876-1.8c.137-.345.282-.729.429-1.136s.295-.849.43-1.29l.385-1.258a5.857 5.857 0 0 0 .214-.922l.007-.044a1.272 1.272 0 0 0-.126-.759c-.075-.179-.303-.265-.688-.265z" transform="translate(-447.283 -1066.303)"/>
        </g>
        <g id="그룹_309" transform="translate(371.102 998.529)">
            <path id="패스_363" d="M462.157 1049.865a2.467 2.467 0 0 0-.912-1.022 2.714 2.714 0 0 0-1.353-.387 4.3 4.3 0 0 0-1.658.3 4.464 4.464 0 0 0-1.408.967 6.361 6.361 0 0 0-1.078 1.436 6.782 6.782 0 0 0-.663 1.74 6.179 6.179 0 0 0-.165 1.823 1.731 1.731 0 0 0 .165.663 1.749 1.749 0 0 0 .5.663 3.085 3.085 0 0 0 .966.5 3.752 3.752 0 0 0 1.243.221 4.675 4.675 0 0 0 1.078-.138 3.9 3.9 0 0 0 1.242-.58 4.641 4.641 0 0 0 1.271-1.381 7.649 7.649 0 0 0 .828-1.768 4.707 4.707 0 0 0 .221-1.491 2.986 2.986 0 0 0-.277-1.546zm-2.431 2.541a3.635 3.635 0 0 1-1.6 1.823 2.28 2.28 0 0 1 .055-1.1 3.316 3.316 0 0 1 .386-.939 4.014 4.014 0 0 1 1.6-1.713 3.144 3.144 0 0 1-.441 1.929z" class="cls-1" transform="translate(-454.75 -1048.294)"/>
            <path id="패스_364" d="M457.607 1056.744a3.944 3.944 0 0 1-1.3-.23 3.281 3.281 0 0 1-1.016-.525 2.068 2.068 0 0 1-.72-1.449 6.4 6.4 0 0 1 .17-1.86 6.963 6.963 0 0 1 .678-1.781 6.561 6.561 0 0 1 1.1-1.472 4.66 4.66 0 0 1 1.458-1 4.463 4.463 0 0 1 1.726-.317 2.89 2.89 0 0 1 1.431.411 2.633 2.633 0 0 1 .971 1.086 3.17 3.17 0 0 1 .293 1.628 4.88 4.88 0 0 1-.229 1.532 7.869 7.869 0 0 1-.845 1.8 4.815 4.815 0 0 1-1.315 1.428 4.084 4.084 0 0 1-1.3.6 4.844 4.844 0 0 1-1.102.149zm1.981-8.316a4.251 4.251 0 0 0-1.482.3 4.336 4.336 0 0 0-1.352.931 6.225 6.225 0 0 0-1.049 1.4 6.633 6.633 0 0 0-.648 1.7 6.114 6.114 0 0 0-.162 1.776 1.748 1.748 0 0 0 .606 1.213 2.971 2.971 0 0 0 .916.469 3.623 3.623 0 0 0 1.191.212 4.537 4.537 0 0 0 1.04-.133 3.763 3.763 0 0 0 1.191-.558 4.492 4.492 0 0 0 1.224-1.333 7.528 7.528 0 0 0 .812-1.731 4.585 4.585 0 0 0 .214-1.443 2.861 2.861 0 0 0-.259-1.475 2.319 2.319 0 0 0-.853-.958 2.569 2.569 0 0 0-1.275-.363zm-1.763 5.839l-.043-.189a2.465 2.465 0 0 1 .057-1.182 3.385 3.385 0 0 1 .408-.986 4.092 4.092 0 0 1 1.678-1.773l.168-.065.044.176a3.248 3.248 0 0 1-.453 2.041 3.8 3.8 0 0 1-1.682 1.9zm2.031-3.741a4.65 4.65 0 0 0-1.339 1.557 3.165 3.165 0 0 0-.369.9 2.33 2.33 0 0 0-.086.82 3.864 3.864 0 0 0 1.336-1.652 3.647 3.647 0 0 0 .459-1.625z" transform="translate(-454.564 -1048.108)"/>
        </g>
        <g id="그룹_310" transform="translate(373.962 980.505)">
            <path id="패스_365" d="M461.852 1021.354a10.2 10.2 0 0 1-.051-1.824q.051-1.053.154-2.236t.334-2.441q.232-1.259.54-2.441.2-.72.437-1.388a1.2 1.2 0 0 1 .951-.822 1.6 1.6 0 0 1 1.028.18 1.152 1.152 0 0 1 .72.694 2.4 2.4 0 0 1-.052.822q-.1.514-.257 1.054t-.334 1.053q-.18.515-.283.823a14.949 14.949 0 0 0-.617 2.9q-.206 1.671-.617 3.521a.807.807 0 0 1-.411.566 2.632 2.632 0 0 1-.513.205.712.712 0 0 1-.719-.205q-.309-.306-.31-.461z" class="cls-1" transform="translate(-461.304 -1009.695)"/>
            <path id="패스_366" d="M462.124 1021.971a1.2 1.2 0 0 1-.859-.372 1.24 1.24 0 0 1-.449-.761 10.829 10.829 0 0 1-.051-1.889c.034-.706.086-1.464.155-2.254s.184-1.632.34-2.486.34-1.679.548-2.476c.138-.487.289-.963.448-1.424a1.683 1.683 0 0 1 1.3-1.134 1.39 1.39 0 0 1 .333-.038 2.4 2.4 0 0 1 .994.251 1.6 1.6 0 0 1 .985 1.013l.008.04a2.826 2.826 0 0 1-.055.993c-.072.361-.162.728-.266 1.092s-.22.729-.343 1.08-.213.611-.28.814a14.566 14.566 0 0 0-.6 2.811c-.138 1.124-.348 2.323-.624 3.566a1.286 1.286 0 0 1-.665.89 3.049 3.049 0 0 1-.614.242 1.29 1.29 0 0 1-.305.042zm-.355-1.251a1.329 1.329 0 0 0 .174.2c.125.125.179.1.264.08a2.134 2.134 0 0 0 .416-.169c.031-.015.111-.055.161-.253.266-1.2.471-2.369.605-3.462a15.6 15.6 0 0 1 .638-3c.069-.207.163-.483.285-.829s.226-.679.325-1.026.18-.682.248-1.017a2.039 2.039 0 0 0 .052-.626.837.837 0 0 0-.45-.359 1.219 1.219 0 0 0-.711-.151.74.74 0 0 0-.614.514c-.154.444-.3.9-.429 1.362-.2.764-.378 1.573-.53 2.4s-.261 1.63-.327 2.4-.12 1.524-.154 2.217a9.852 9.852 0 0 0 .046 1.719z" transform="translate(-460.746 -1009.138)"/>
        </g>
        <g id="그룹_311" transform="translate(386.725 994.305)">
            <path id="패스_367" d="M489.378 1057.847a36 36 0 0 1 .488-5.885q.487-2.955 1.1-5.833.051-.2.154-.9t.206-1.49q.1-.8.205-1.491t.1-.848a1.6 1.6 0 0 1 .437-.976 1.661 1.661 0 0 1 1.259-.411q1.027 0 1.31.514a2.77 2.77 0 0 1 .283 1.337 5.637 5.637 0 0 1-.411 1.8 9.165 9.165 0 0 0-.514 1.953q-.515 3.6-.848 5.911t-.539 3.8q-.207 1.492-.283 2.339t-.077 1.465a13.8 13.8 0 0 0 .154 2.185q.154.951.257 2.133v.205a.529.529 0 0 1-.334.514 1.641 1.641 0 0 1-.694.154 1.363 1.363 0 0 1-1.1-.54 4.02 4.02 0 0 1-.694-1.465 11.671 11.671 0 0 1-.36-2.081q-.099-1.156-.099-2.39z" class="cls-1" transform="translate(-488.898 -1039.533)"/>
            <path id="패스_368" d="M491.082 1064.245a1.85 1.85 0 0 1-1.478-.718 4.485 4.485 0 0 1-.784-1.638 12.227 12.227 0 0 1-.376-2.167c-.069-.776-.1-1.594-.1-2.432a36.634 36.634 0 0 1 .495-5.963c.324-1.963.7-3.933 1.109-5.855.024-.1.066-.314.149-.87q.1-.689.2-1.481t.206-1.5c.09-.611.1-.749.1-.777v-.042a2.078 2.078 0 0 1 .565-1.261 2.116 2.116 0 0 1 1.61-.563 1.806 1.806 0 0 1 1.73.762 3.25 3.25 0 0 1 .342 1.568 6.017 6.017 0 0 1-.44 1.962 8.764 8.764 0 0 0-.489 1.848q-.515 3.611-.849 5.92t-.539 3.8c-.136.979-.229 1.759-.28 2.316s-.074 1.027-.074 1.421a13.383 13.383 0 0 0 .148 2.107c.1.636.191 1.365.261 2.168v.247a1 1 0 0 1-.612.95 2.127 2.127 0 0 1-.894.198zm.479-23.375a8.449 8.449 0 0 1-.108.891q-.1.691-.2 1.482t-.206 1.5c-.1.643-.139.847-.163.944-.405 1.894-.776 3.848-1.1 5.8a35.7 35.7 0 0 0-.482 5.807c0 .81.033 1.6.1 2.347a11.255 11.255 0 0 0 .344 2 3.569 3.569 0 0 0 .605 1.292.886.886 0 0 0 .732.362 1.155 1.155 0 0 0 .493-.11.137.137 0 0 0 .049-.032.126.126 0 0 0 .006-.047v-.185c-.068-.771-.152-1.47-.25-2.077a14.247 14.247 0 0 1-.161-2.261c0-.423.027-.931.079-1.508s.148-1.367.286-2.36.316-2.263.54-3.807.5-3.511.847-5.91a9.659 9.659 0 0 1 .538-2.049 5.242 5.242 0 0 0 .382-1.634 2.321 2.321 0 0 0-.224-1.106c-.094-.17-.41-.265-.889-.265a1.317 1.317 0 0 0-.91.26 1.127 1.127 0 0 0-.308.666z" transform="translate(-488.341 -1038.976)"/>
        </g>
        <g id="그룹_312" transform="translate(397.003 993.118)">
            <path id="패스_369" d="M521.315 1048.906q-.412 1.748-1 3.88t-1.156 3.675a1.283 1.283 0 0 1-.617.668 1.731 1.731 0 0 1-.95.231 1.165 1.165 0 0 1-.823-.385 1.524 1.524 0 0 1-.231-1.234 18.538 18.538 0 0 1 .437-2.21q.282-1.079.694-2.364.72-2.107 1.284-4.086t1.131-4.086l.18-.745a2.561 2.561 0 0 0 .076-.437.891.891 0 0 0-.154-.822.976.976 0 0 0-.72-.257 6.4 6.4 0 0 0-2.467.488 18.118 18.118 0 0 0-2.159 1.054 7.773 7.773 0 0 0-.925.539 2.484 2.484 0 0 1-.977.386.833.833 0 0 1-1-.437 2.332 2.332 0 0 1-.334-1.156q0-.667.976-1.311a10.694 10.694 0 0 1 2.261-1.1 20.743 20.743 0 0 1 2.569-.745 16.223 16.223 0 0 1 1.9-.334 6.32 6.32 0 0 1 3.058.437 1.982 1.982 0 0 1 1 2.133c-.034.378-.07.728-.1 1.054s-.086.66-.154 1a6.568 6.568 0 0 0 .591-.333 4.44 4.44 0 0 1 .643-.334q2.158-1.028 4.163-1.8a12.22 12.22 0 0 1 4.42-.771 2.843 2.843 0 0 1 1.285.283 1.165 1.165 0 0 1 .565 1.156q0 .823-.617.822h-.874a9.2 9.2 0 0 0-3.469.72q-1.774.72-3.264 1.49-.72.412-1.439.925a2.6 2.6 0 0 1-1.542.514 1.855 1.855 0 0 1-.617-.077 2.9 2.9 0 0 1-.462-.231q-.308.925-.617 1.876t-.565 1.924zm17.012-3.135a31.157 31.157 0 0 1-3.907 3.469q-2.209 1.671-4.163 2.9-.72.411-1.773 1.053a3.976 3.976 0 0 1-2.081.642 1.11 1.11 0 0 1-.976-.437 1.866 1.866 0 0 1-.308-1.1 1.047 1.047 0 0 1 .334-.848c.222-.188.4-.334.539-.437q1.592-.874 3.444-2t3.546-2.39a36.883 36.883 0 0 0 3.135-2.6 11.681 11.681 0 0 0 2.21-2.672 5.739 5.739 0 0 0 .385-.9c.154-.428.316-.865.488-1.311a5.547 5.547 0 0 1 .617-1.182.985.985 0 0 1 .771-.514 3.033 3.033 0 0 1 .617.077 2.82 2.82 0 0 1 .668.231 1.04 1.04 0 0 1 .462.437.934.934 0 0 1 .051.693q-.257 1.131-.487 2.133t-.411 1.953q-.18.951-.283 1.953a21.271 21.271 0 0 0-.1 2.184v2.647a23.5 23.5 0 0 0 .154 2.6 9.262 9.262 0 0 0 .437 2.03 5.962 5.962 0 0 1 .334 1.876.668.668 0 0 1-.36.617 1.322 1.322 0 0 1-.822.154 1.348 1.348 0 0 1-.977-.617 5.716 5.716 0 0 1-.693-1.285 10.65 10.65 0 0 1-.462-1.491 10.136 10.136 0 0 1-.231-1.285c-.07-.616-.112-1.164-.13-1.644s-.025-.959-.025-1.439v-3.495zm7.452 3.6q0-.411.077-1.259t.18-1.747q.1-.9.179-1.671t.129-1.079q.1-.616.231-1.387t.257-1.542q.128-.77.231-1.413a6.37 6.37 0 0 1 .207-.95 1.129 1.129 0 0 1 .359-.463 1.428 1.428 0 0 1 .874-.205 1.787 1.787 0 0 1 1.182.385 1.192 1.192 0 0 1 .462.951 8.131 8.131 0 0 1-.36 2.184 23.575 23.575 0 0 0-.565 2.441 8.176 8.176 0 0 1-.1.822c-.07.446-.137.934-.206 1.465s-.136 1.028-.206 1.49-.1.745-.1.848l-.155 1.079a8.675 8.675 0 0 1-.334 1.438 5.692 5.692 0 0 1-.566 1.26.95.95 0 0 1-.8.54.819.819 0 0 1-.745-.36 1.94 1.94 0 0 1-.282-.874 5.349 5.349 0 0 1 0-1.054c.033-.362.051-.661.051-.902z" class="cls-1" transform="translate(-511.122 -1036.965)"/>
            <path id="패스_370" d="M517.122 1057.285h-.117a1.633 1.633 0 0 1-1.148-.538 1.937 1.937 0 0 1-.356-1.616 19.375 19.375 0 0 1 .449-2.275c.189-.724.426-1.528.7-2.389.476-1.395.905-2.761 1.28-4.071.369-1.292.749-2.665 1.129-4.078.064-.262.125-.507.175-.728a2.591 2.591 0 0 0 .065-.336l.007-.079c.043-.235.015-.361-.022-.4a.485.485 0 0 0-.38-.116 5.95 5.95 0 0 0-2.284.452 17.752 17.752 0 0 0-2.1 1.025 7.672 7.672 0 0 0-.894.52 2.965 2.965 0 0 1-1.162.462 1.581 1.581 0 0 1-.348.04 1.28 1.28 0 0 1-1.158-.713 2.81 2.81 0 0 1-.4-1.392 2.163 2.163 0 0 1 1.193-1.711 11.18 11.18 0 0 1 2.362-1.155 21.2 21.2 0 0 1 2.629-.762 16.479 16.479 0 0 1 1.965-.344c.232-.012.44-.018.642-.018a6.128 6.128 0 0 1 2.666.5 2.423 2.423 0 0 1 1.271 2.595l-.1 1.073v.043c.131-.07.271-.137.417-.2 1.429-.68 2.842-1.291 4.18-1.805a12.747 12.747 0 0 1 4.592-.8 3.332 3.332 0 0 1 1.5.333 1.605 1.605 0 0 1 .832 1.586c0 1.208-.839 1.3-1.1 1.3h-.874a8.762 8.762 0 0 0-3.289.684c-1.169.475-2.253.97-3.224 1.472-.445.255-.915.558-1.38.89a3.086 3.086 0 0 1-1.821.6 2.269 2.269 0 0 1-.787-.108h-.012q-.221.668-.442 1.349c-.2.629-.391 1.268-.558 1.9-.271 1.155-.61 2.466-1 3.887s-.789 2.676-1.168 3.712a1.757 1.757 0 0 1-.834.922 2.227 2.227 0 0 1-1.096.289zm3.137-15.98a3 3 0 0 1-.088.5q-.078.338-.182.753c-.383 1.427-.764 2.8-1.135 4.1-.379 1.325-.814 2.708-1.292 4.109-.268.836-.5 1.623-.683 2.33a18.084 18.084 0 0 0-.425 2.154c-.069.582.051.783.106.842a.686.686 0 0 0 .5.233 1.221 1.221 0 0 0 .692-.171.821.821 0 0 0 .4-.418c.369-1.008.755-2.232 1.143-3.634s.726-2.708 1-3.862c.173-.662.366-1.319.575-1.966s.412-1.261.618-1.88l.189-.568.513.309a2.358 2.358 0 0 0 .383.193 1.4 1.4 0 0 0 .449.047 2.118 2.118 0 0 0 1.263-.425 17.428 17.428 0 0 1 1.48-.951c1.013-.525 2.125-1.032 3.321-1.518a9.71 9.71 0 0 1 3.65-.755h.874a.2.2 0 0 0 .077-.011s.06-.067.06-.332c0-.577-.218-.686-.3-.727a2.381 2.381 0 0 0-1.07-.232 11.79 11.79 0 0 0-4.248.739c-1.315.506-2.7 1.106-4.129 1.784a4.167 4.167 0 0 0-.591.306 7.142 7.142 0 0 1-.634.359l-.877.438.192-.961c.065-.327.115-.649.147-.959s.068-.672.1-1.047c.072-1.128-.385-1.487-.735-1.658a5.922 5.922 0 0 0-2.822-.389 16.176 16.176 0 0 0-1.824.324 20.323 20.323 0 0 0-2.51.728 10.215 10.215 0 0 0-2.16 1.055c-.347.228-.76.571-.76.909a1.869 1.869 0 0 0 .272.919c.117.208.228.226.322.226a.717.717 0 0 0 .155-.019 2.057 2.057 0 0 0 .812-.314 8.367 8.367 0 0 1 .982-.573 18.42 18.42 0 0 1 2.19-1.068 6.908 6.908 0 0 1 2.65-.525 1.439 1.439 0 0 1 1.058.4 1.317 1.317 0 0 1 .292 1.206zm20.21 15.654a2.143 2.143 0 0 1-.235-.014 1.8 1.8 0 0 1-1.311-.812 6.168 6.168 0 0 1-.753-1.392 11.207 11.207 0 0 1-.483-1.557 10.726 10.726 0 0 1-.241-1.346c-.069-.615-.114-1.181-.131-1.675-.017-.47-.026-.96-.026-1.456v-2.324a33.1 33.1 0 0 1-3.137 2.681c-1.475 1.116-2.888 2.1-4.2 2.927q-.744.426-1.779 1.058a4.467 4.467 0 0 1-2.331.712 1.573 1.573 0 0 1-1.369-.64 2.342 2.342 0 0 1-.4-1.381 1.508 1.508 0 0 1 .5-1.214c.231-.2.419-.347.561-.455l.057-.037c1.056-.578 2.207-1.249 3.423-1.993s2.4-1.538 3.51-2.366a36.559 36.559 0 0 0 3.095-2.562 11.244 11.244 0 0 0 2.121-2.56 5.082 5.082 0 0 0 .349-.822q.234-.647.493-1.321a5.952 5.952 0 0 1 .672-1.284 1.428 1.428 0 0 1 1.163-.719 3.432 3.432 0 0 1 .717.088 3.309 3.309 0 0 1 .783.271 1.514 1.514 0 0 1 .668.636 1.4 1.4 0 0 1 .1 1.039c-.169.745-.332 1.456-.487 2.125s-.289 1.313-.407 1.934-.21 1.26-.277 1.913a20.956 20.956 0 0 0-.1 2.135v2.647a23.349 23.349 0 0 0 .151 2.542 8.89 8.89 0 0 0 .415 1.931 6.477 6.477 0 0 1 .358 2.028 1.146 1.146 0 0 1-.6 1.033 1.739 1.739 0 0 1-.869.23zm-2.22-12.959v4.7c0 .485.008.963.025 1.422s.059 1.011.126 1.609a9.729 9.729 0 0 0 .222 1.229 10.165 10.165 0 0 0 .442 1.424 5.223 5.223 0 0 0 .635 1.178.886.886 0 0 0 .631.421 1.211 1.211 0 0 0 .139.009.794.794 0 0 0 .4-.1.194.194 0 0 0 .117-.2 5.515 5.515 0 0 0-.309-1.724 9.766 9.766 0 0 1-.458-2.134 24.036 24.036 0 0 1-.157-2.643v-2.647a21.953 21.953 0 0 1 .105-2.234c.069-.679.166-1.35.288-1.993s.259-1.3.415-1.971.316-1.378.488-2.132a.511.511 0 0 0 0-.358.572.572 0 0 0-.256-.237 2.354 2.354 0 0 0-.554-.191 2.579 2.579 0 0 0-.516-.067c-.14 0-.3.194-.377.309a5.034 5.034 0 0 0-.562 1.079c-.171.443-.332.876-.485 1.3a5.937 5.937 0 0 1-.425.984 12.19 12.19 0 0 1-2.295 2.777 37.676 37.676 0 0 1-3.176 2.629c-1.138.845-2.343 1.657-3.582 2.414-1.217.744-2.372 1.417-3.432 2q-.192.146-.491.4c-.041.034-.164.139-.164.482a1.413 1.413 0 0 0 .22.828.629.629 0 0 0 .585.234 3.522 3.522 0 0 0 1.831-.572c.7-.426 1.3-.783 1.786-1.06 1.268-.8 2.657-1.771 4.111-2.87a30.877 30.877 0 0 0 3.846-3.416zm7.948 8.473a1.281 1.281 0 0 1-1.148-.58 2.416 2.416 0 0 1-.356-1.086 5.8 5.8 0 0 1 0-1.147c.033-.354.05-.633.05-.854 0-.292.026-.717.08-1.3q.077-.853.181-1.759t.179-1.663c.054-.532.1-.9.133-1.111l.488-2.929q.128-.769.231-1.411a6.6 6.6 0 0 1 .225-1.027 1.619 1.619 0 0 1 .514-.685 1.841 1.841 0 0 1 1.173-.31 2.255 2.255 0 0 1 1.488.5 1.676 1.676 0 0 1 .636 1.32 8.661 8.661 0 0 1-.378 2.316 23.273 23.273 0 0 0-.548 2.357c0 .107-.026.316-.107.847q-.1.665-.2 1.453t-.207 1.5a7.826 7.826 0 0 0-.1.778l-.005.068-.155 1.079a9.194 9.194 0 0 1-.352 1.518 6.2 6.2 0 0 1-.614 1.365 1.4 1.4 0 0 1-1.205.765zm1.748-14.9a1 1 0 0 0-.574.1.654.654 0 0 0-.213.266 6.155 6.155 0 0 0-.177.848q-.1.645-.232 1.416l-.488 2.93c-.032.192-.074.544-.124 1.049s-.112 1.075-.18 1.677-.128 1.175-.18 1.736-.074.956-.074 1.215-.018.56-.054.944a5.061 5.061 0 0 0 0 .961 1.488 1.488 0 0 0 .209.662c.03.046.09.14.342.14.049 0 .2 0 .389-.313a5.264 5.264 0 0 0 .516-1.153 8.308 8.308 0 0 0 .316-1.361l.15-1.05c0-.1.024-.318.107-.88q.1-.688.2-1.481t.208-1.477a7.393 7.393 0 0 0 .1-.749l.007-.082a24.012 24.012 0 0 1 .576-2.491 7.719 7.719 0 0 0 .341-2.052.72.72 0 0 0-.289-.583 1.315 1.315 0 0 0-.876-.272z" transform="translate(-510.564 -1036.408)"/>
        </g>
        <path id="패스_371" d="M621.571 957.442c-1.079 1.154-.678 2.447-.956 3.926a10.209 10.209 0 0 1-2.6 4.718 21.866 21.866 0 0 1-3.864 3.042 28.915 28.915 0 0 0-2.624 1.77c-1.579 1.3.2 3.6 1.708 4.4 1.24.658 2.877.565 4.267.641a7.838 7.838 0 0 0 4.091-.909c1.8-.8 2.975-2.449 4.834-3.187a4.649 4.649 0 0 1 3.377.33c.017.494-.511 1.071-.827 1.439a15.39 15.39 0 0 1-1.947 2 44.131 44.131 0 0 1-5.295 3.985c-1.984 1.173-3.732 2.615-5.638 3.878-1.013.671-2.089 1.252-3.159 1.839-.951.522-2.826 1.175-2.961 2.326-.071.03-.115-.015-.185.021a17.385 17.385 0 0 0 .6 3.571c.519 1.343 1.453 3.353 2.813 4.181a5.387 5.387 0 0 0 2.972.386 19.053 19.053 0 0 0 4.868-1.431 29.978 29.978 0 0 0 4.583-2.381c3.008-2.034 6.925-3.209 10.44-4.369 1.442-.476 2.766-1.18 4.194-1.679 1.383-.482 2.836-.841 4.211-1.362a23.589 23.589 0 0 0 4.6-2.69 6.141 6.141 0 0 0 1.579-1.21 2.573 2.573 0 0 0 .3-1.5c.065-1.2-.3-1.728-1.471-2.491-1.109-.724-3.17-.741-4.579-.613a30.234 30.234 0 0 0-5.3 1.473 43.168 43.168 0 0 0-4.892 1.969 61.792 61.792 0 0 1-11.61 3.185 49.957 49.957 0 0 1-5.469.916 7.849 7.849 0 0 0 2.04-1.376c.888-.635 1.881-1.163 2.79-1.8 1.823-1.281 3.7-2.578 5.381-3.942.9-.726 1.942-1.413 2.742-2.208.637-.633.876-1.522 1.546-2.139 1.141-1.052 4 .331 5.375.478a38.044 38.044 0 0 0 5.26.5c.647-.023.713-.082.986-.557a4.469 4.469 0 0 0 .661-2.473c-.367-1.306-3.071-2.185-4.292-2.5a35.118 35.118 0 0 0-6.9-1.249c-1.777-.1-4.057.2-5.752-.393.051-1.384.147-2.771.222-4.156.089-1.641.411-3.329-.654-4.776a1.918 1.918 0 0 0-1.11-.767 10.653 10.653 0 0 0-3.674-.333c-.888.209-.876 1.048-.915 1.769" class="cls-2" transform="translate(-166.896)"/>
        <path id="패스_372" d="M651.449 1028.995c-.878 1.255-2.172 1.862-3.165 2.977a10.2 10.2 0 0 0-1.865 3.939 55.909 55.909 0 0 0-1.71 11.564c-.191 2.8-.431 5.561-.749 8.357q-.172 1.515-.346 3.029c-.21 1.81-.1 3.56-.294 5.36-.362 3.42-.78 6.837-1.17 10.254-.111.976-.2 1.957-.333 2.93a28.235 28.235 0 0 1-.775 2.76c-.273 1.147-.614 2.272-.931 3.387 1.9.505 3.687-2.273 4.39-4.15 1.226-3.27 2.075-6.842 3.019-10.244 1.159-4.177 2.437-8.63 2.118-13.045a70.353 70.353 0 0 1-.323-11.314 91.226 91.226 0 0 1 1.107-9.582c.395-2.019.773-4 1.008-6.062" class="cls-2" transform="translate(-183.19 -39.306)"/>
        <g id="그룹_313" transform="translate(389.56 982.836)">
            <path id="패스_373" d="M495.776 1018.737v-3.773h-1.305v-.5h3.2v.5h-1.305v3.773z" class="cls-1" transform="translate(-494.471 -1014.329)"/>
            <path id="패스_374" d="M503.222 1019.916a1.172 1.172 0 0 1-.78-.243.832.832 0 0 1-.288-.67v-.16a.884.884 0 0 1 .279-.676 1.294 1.294 0 0 1 .9-.261h.824v-.19a.657.657 0 0 0-.157-.483.7.7 0 0 0-.513-.157 1.268 1.268 0 0 0-.5.089 2.8 2.8 0 0 0-.436.238l-.284-.427a2.739 2.739 0 0 1 .534-.288 1.817 1.817 0 0 1 .688-.121 1.717 1.717 0 0 1 .5.068 1.117 1.117 0 0 1 .389.2.932.932 0 0 1 .255.326 1 1 0 0 1 .092.436v2.272h-.552v-.391h-.006a.621.621 0 0 1-.128.163.907.907 0 0 1-.175.128 1.191 1.191 0 0 1-.282.11 1.49 1.49 0 0 1-.36.037zm.937-1.525h-.813a.72.72 0 0 0-.484.131.462.462 0 0 0-.145.362v.083a.377.377 0 0 0 .166.344.714.714 0 0 0 .4.107 1.216 1.216 0 0 0 .371-.05.932.932 0 0 0 .288-.151.525.525 0 0 0 .169-.2.764.764 0 0 0 .05-.3z" class="cls-1" transform="translate(-498.6 -1015.46)"/>
            <path id="패스_375" d="M511.224 1018.252l1.068 1.685h-.692l-.753-1.3-.771 1.3h-.658l1.085-1.685-1.032-1.56h.694l.718 1.2.73-1.2h.641z" class="cls-1" transform="translate(-502.503 -1015.529)"/>
            <path id="패스_376" d="M524.239 1018.737h-.617l-.451-1.258h-1.637l-.451 1.258h-.6l1.59-4.277h.569zm-2.527-1.762h1.281l-.356-1-.084-.229c-.025-.066-.045-.129-.065-.19l-.061-.192c-.021-.067-.047-.15-.075-.249-.031.1-.057.183-.077.252s-.04.134-.059.193l-.062.187c-.021.065-.049.142-.08.229z" class="cls-1" transform="translate(-508.452 -1014.329)"/>
            <path id="패스_377" d="M531.336 1016.564a1.847 1.847 0 0 1 .662.1 1.885 1.885 0 0 1 .46.255l-.273.433a1.359 1.359 0 0 0-.418-.222 1.517 1.517 0 0 0-.43-.056.919.919 0 0 0-.309.053.693.693 0 0 0-.261.169.836.836 0 0 0-.18.294 1.187 1.187 0 0 0-.068.427v.409a1.3 1.3 0 0 0 .068.448.8.8 0 0 0 .184.3.723.723 0 0 0 .266.169.932.932 0 0 0 .312.053 1.47 1.47 0 0 0 .531-.083 1.62 1.62 0 0 0 .383-.214l.278.438a1.72 1.72 0 0 1-.463.259 2.011 2.011 0 0 1-.735.116 1.355 1.355 0 0 1-1.042-.392 1.539 1.539 0 0 1-.365-1.092v-.409a1.757 1.757 0 0 1 .1-.62 1.294 1.294 0 0 1 .282-.457 1.186 1.186 0 0 1 .439-.285 1.62 1.62 0 0 1 .579-.093z" class="cls-1" transform="translate(-513.532 -1015.46)"/>
            <path id="패스_378" d="M538.43 1016.564a1.84 1.84 0 0 1 .661.1 1.869 1.869 0 0 1 .46.255l-.273.433a1.366 1.366 0 0 0-.419-.222 1.516 1.516 0 0 0-.43-.056.916.916 0 0 0-.309.053.693.693 0 0 0-.261.169.844.844 0 0 0-.18.294 1.2 1.2 0 0 0-.068.427v.409a1.316 1.316 0 0 0 .068.448.81.81 0 0 0 .184.3.716.716 0 0 0 .266.169.933.933 0 0 0 .312.053 1.467 1.467 0 0 0 .531-.083 1.613 1.613 0 0 0 .383-.214l.279.438a1.72 1.72 0 0 1-.463.259 2.014 2.014 0 0 1-.735.116 1.355 1.355 0 0 1-1.042-.392 1.541 1.541 0 0 1-.365-1.092v-.409a1.757 1.757 0 0 1 .1-.62 1.3 1.3 0 0 1 .281-.457 1.2 1.2 0 0 1 .439-.285 1.623 1.623 0 0 1 .581-.093z" class="cls-1" transform="translate(-517.345 -1015.46)"/>
            <path id="패스_379" d="M545.57 1016.564a1.437 1.437 0 0 1 1.059.386 1.469 1.469 0 0 1 .388 1.091v.4a1.469 1.469 0 0 1-.388 1.092 1.646 1.646 0 0 1-2.118 0 1.468 1.468 0 0 1-.389-1.092v-.4a1.467 1.467 0 0 1 .389-1.095 1.445 1.445 0 0 1 1.059-.382zm0 2.848a.824.824 0 0 0 .626-.252 1.076 1.076 0 0 0 .241-.769v-.3a1.075 1.075 0 0 0-.241-.768.9.9 0 0 0-1.252 0 1.082 1.082 0 0 0-.24.768v.3a1.082 1.082 0 0 0 .24.769.828.828 0 0 0 .626.252z" class="cls-1" transform="translate(-521.158 -1015.46)"/>
            <path id="패스_380" d="M552.486 1016.692h.575v2.017a.871.871 0 0 0 .167.593.677.677 0 0 0 .527.184.862.862 0 0 0 .291-.05.807.807 0 0 0 .258-.148.73.73 0 0 0 .187-.247.767.767 0 0 0 .072-.338v-2.011h.575v3.245h-.558v-.409h-.006a1 1 0 0 1-.386.347 1.25 1.25 0 0 1-.575.121 1.347 1.347 0 0 1-.442-.071 1 1 0 0 1-.356-.214 1.016 1.016 0 0 1-.24-.359 1.349 1.349 0 0 1-.089-.513z" class="cls-1" transform="translate(-525.653 -1015.529)"/>
            <path id="패스_381" d="M563.46 1019.868h-.575v-2.017a.853.853 0 0 0-.172-.593.7.7 0 0 0-.534-.184.891.891 0 0 0-.294.05.8.8 0 0 0-.26.148.769.769 0 0 0-.191.247.752.752 0 0 0-.074.338v2.011h-.575v-3.245h.558v.409h.006a.994.994 0 0 1 .392-.347 1.3 1.3 0 0 1 .581-.121 1.361 1.361 0 0 1 .445.071 1.012 1.012 0 0 1 .362.213 1 1 0 0 1 .243.362 1.353 1.353 0 0 1 .089.51z" class="cls-1" transform="translate(-530.113 -1015.46)"/>
            <path id="패스_382" d="M568.847 1016.233h-.534v-.493h.534v-.819h.575v.819h.854v.493h-.854v1.845a.8.8 0 0 0 .03.24.291.291 0 0 0 .087.14.313.313 0 0 0 .133.065.749.749 0 0 0 .166.018 1.248 1.248 0 0 0 .427-.077l.089.462a1.5 1.5 0 0 1-.267.074 1.762 1.762 0 0 1-.338.033.9.9 0 0 1-.683-.231 1.023 1.023 0 0 1-.219-.724z" class="cls-1" transform="translate(-534.159 -1014.578)"/>
            <path id="패스_383" d="M575.2 1014.178v.629h-.611v-.629zm-.018 1.163v3.245h-.582v-3.245z" class="cls-1" transform="translate(-537.531 -1014.178)"/>
            <path id="패스_384" d="M581.147 1019.868h-.575v-2.017a.853.853 0 0 0-.172-.593.7.7 0 0 0-.535-.184.884.884 0 0 0-.294.05.8.8 0 0 0-.261.148.757.757 0 0 0-.19.247.74.74 0 0 0-.074.338v2.011h-.575v-3.245h.558v.409h.006a.994.994 0 0 1 .392-.347 1.3 1.3 0 0 1 .582-.121 1.363 1.363 0 0 1 .445.071 1.01 1.01 0 0 1 .361.213 1 1 0 0 1 .243.362 1.353 1.353 0 0 1 .089.51z" class="cls-1" transform="translate(-539.62 -1015.46)"/>
            <path id="패스_385" d="M589.143 1019.827q0 1.365-1.448 1.365a1.831 1.831 0 0 1-.6-.095 1.688 1.688 0 0 1-.475-.249l.261-.451a1.431 1.431 0 0 0 .376.2 1.363 1.363 0 0 0 .46.077.892.892 0 0 0 .637-.2.839.839 0 0 0 .217-.638v-.4a.761.761 0 0 1-.385.329 1.485 1.485 0 0 1-.546.1 1.2 1.2 0 0 1-.94-.359 1.479 1.479 0 0 1-.323-1.024v-.516a1.7 1.7 0 0 1 .1-.587 1.238 1.238 0 0 1 .264-.439 1.136 1.136 0 0 1 .407-.273 1.4 1.4 0 0 1 .522-.095 1.163 1.163 0 0 1 .59.128 1.009 1.009 0 0 1 .317.27v-.338h.575zm-.57-2.07a.553.553 0 0 0-.062-.249.7.7 0 0 0-.178-.222.926.926 0 0 0-.273-.157.962.962 0 0 0-.341-.059.691.691 0 0 0-.572.255 1.117 1.117 0 0 0-.205.718v.338a1.109 1.109 0 0 0 .208.718.692.692 0 0 0 .569.255.96.96 0 0 0 .333-.056.781.781 0 0 0 .453-.421.824.824 0 0 0 .068-.341z" class="cls-1" transform="translate(-543.866 -1015.46)"/>
        </g>
        <path id="패스_386" fill="#9e1f24" d="M702.2 1055.037a3.662 3.662 0 0 0 0-3.487 5.91 5.91 0 0 1-.636-2.929c-.041-.827-.292-1.623-.357-2.441-.082-1.031 0-2.107 0-3.138-1.51-.082-3.036.044-4.538-.083-1.623-.137-3.221-.42-4.838-.568a16.644 16.644 0 0 0-5.008.228c-.821.183-1.846.442-2.115 1.3l-.1.1a12.371 12.371 0 0 0-.893 2.021 27.457 27.457 0 0 0 .21 4.7c.049 1.449.393 2.87.327 4.307a3.864 3.864 0 0 0 .106 1.835 5.483 5.483 0 0 1 .365.969c.074.286.052.7.148.965.326.884 2.513.812 3.4.843a24.607 24.607 0 0 0 5.5-.767 26.786 26.786 0 0 1 5.026-.3 11.268 11.268 0 0 0 2.268.05c.478-.119.444-.577.473-1.048a8.022 8.022 0 0 1-.008-1.548c.107-.402.494-.646.67-1.009zm-3.06-1.023a2.057 2.057 0 0 0-.353.277c-.021.173-.069.468-.146.881a4.323 4.323 0 0 1-.438 1.235 1.9 1.9 0 0 1-.659.705 1.5 1.5 0 0 1-.8.261.3.3 0 0 1-.178-.062.95.95 0 0 0-.114-.077 1.869 1.869 0 0 0-.981-.491q-.552-.091-.583-.092c-.214-.02-.332.037-.352-.09s.1-.059.368-.059h1.334c.235 0 .43-.367.582-.838a6.958 6.958 0 0 0 .292-1.553l-1.657-.018c-.071.256-.385.369-.943.374s-.8-.154-.744-.461l.383-2.121-1.748.013q-.277 2.96-1.856 4.071a7.366 7.366 0 0 1-2.438 1.28q-.522.076-.56-.169t.3-.383a5.787 5.787 0 0 0 1.671-1.345c.706-.731 1.084-1.626 1.136-3.476h-1.044a3.633 3.633 0 0 0-.5.041c-.179.026-.289.045-.33.055l-.322-.812a2.352 2.352 0 0 0 .507.134c.275.031.465.119.567.119h4.709l.184-.578c.082-.225.265-.294.551-.136s.516.276.69.389c.531.347.688.573.468.7a.748.748 0 0 0-.345.465l-.229 1.477h1.564l.215-.685c.081-.174.262-.268.544-.135a6.536 6.536 0 0 1 .774.392c.52.366.677.579.484.712zm.314-4.47a7.672 7.672 0 0 0-.667.468c-.205.195-.365.341-.484.437a.479.479 0 0 1-.391.115c-.163-.03-.678-.225-1.6-.583a4.383 4.383 0 0 1-2.323-1.841v2.132c0 .317-.369.511-.925.582s-.925-.041-.925-.338v-1.687a5.191 5.191 0 0 1-2.343 1.258 11.164 11.164 0 0 1-2.446.506.6.6 0 0 1-.56-.207c-.107-.148.037-.268.414-.36a9.669 9.669 0 0 0 2.182-.673c1.032-.45 1.787-.715 2.259-1.64H688.3c-.133 0-.307-.114-.521-.093a1.283 1.283 0 0 1-.384-.031l-.338-.828a1.276 1.276 0 0 0 .545.253c.312.036.565.238.759.238h3.777v-1.381c-.925.031-1.467.049-2.158.054l-1.081.008c-.317 0-.5-.081-.591-.246s.047-.26.384-.291a37.368 37.368 0 0 0 3.913-.537 7.983 7.983 0 0 0 3.407-1.135c.04.041.172.161.392.36s.422.391.6.575q.522.475.117.537c-.271.042-.513.087-.728.138a8.352 8.352 0 0 1-.929.169c-.5.071-1.018.133-1.48.184v1.565h2.976l.321-.844c.133-.235.322-.411.568-.33a4.9 4.9 0 0 1 1.212.671.79.79 0 0 1 .384.628c-.021.158-.2.337-.537.337h-4.688c.654.925 1.461.983 2.423 1.264a13.379 13.379 0 0 0 2.561.467c.317.021.401.012.253.099z" transform="translate(-206.592 -46.46)"/>
    </g>
</svg>
